<?xml version="1.0" standalone="no"?>
<!DOCTYPE svg PUBLIC "-//W3C//DTD SVG 20010904//EN"
 "http://www.w3.org/TR/2001/REC-SVG-20010904/DTD/svg10.dtd">
<svg version="1.0" xmlns="http://www.w3.org/2000/svg"
 width="40.000000pt" height="73.000000pt" viewBox="0 0 40.000000 73.000000"
 preserveAspectRatio="xMidYMid meet">
<metadata>
Created by potrace 1.10, written by Peter Selinger 2001-2011
</metadata>
<g transform="translate(0.000000,73.000000) scale(0.100000,-0.100000)"
fill="#f4e7e7" stroke="none">
<path d="M187 548 l-188 -181 53 -54 c29 -30 115 -113 191 -185 107 -102 141
-128 150 -119 9 9 -28 51 -167 184 l-179 172 176 170 c98 93 176 174 174 179
-2 5 -7 11 -13 13 -5 1 -94 -79 -197 -179z m201 163 c-1 -5 -79 -82 -173 -171
-94 -90 -171 -167 -173 -171 -3 -7 209 -218 313 -311 22 -20 37 -40 33 -44 -4
-4 -91 74 -194 172 l-186 179 183 177 c167 161 207 195 197 169z"/>
</g>
</svg>
