<?xml version="1.0" standalone="no"?>
<!DOCTYPE svg PUBLIC "-//W3C//DTD SVG 20010904//EN"
 "http://www.w3.org/TR/2001/REC-SVG-20010904/DTD/svg10.dtd">
<svg version="1.0" xmlns="http://www.w3.org/2000/svg"
 width="40.000000pt" height="73.000000pt" viewBox="0 0 40.000000 73.000000"
 preserveAspectRatio="xMidYMid meet">
<metadata>
Created by potrace 1.10, written by Peter Selinger 2001-2011
</metadata>
<g transform="translate(0.000000,73.000000) scale(0.100000,-0.100000)"
fill="#f4e7e7" stroke="none">
<path d="M5 719 c-5 -7 59 -75 170 -183 l178 -171 -179 -172 c-139 -133 -176
-175 -167 -184 9 -9 43 17 150 119 76 72 162 155 191 185 l53 54 -186 179
c-102 98 -189 180 -194 182 -5 2 -12 -2 -16 -9z m204 -177 l183 -177 -186
-179 c-103 -98 -189 -176 -192 -173 -6 6 243 252 314 312 17 15 32 31 32 37 0
9 -251 257 -317 313 -31 25 -42 46 -25 45 4 -1 90 -81 191 -178z"/>
</g>
</svg>
