<svg id="SvgjsSvg1037" xmlns="http://www.w3.org/2000/svg" version="1.1" xmlns:xlink="http://www.w3.org/1999/xlink" xmlns:svgjs="http://svgjs.com/svgjs" width="100" height="100" viewBox="0 0 100 100"><title>circle</title><desc>Created with Avocode.</desc><defs id="SvgjsDefs1038"></defs><path id="SvgjsPath1039" d="M961 3619C988.614 3619 1011 3641.39 1011 3669C1011 3696.61 988.614 3719 961 3719C933.386 3719 911 3696.61 911 3669C911 3641.39 933.386 3619 961 3619Z " fill="#000000" fill-opacity="1" transform="matrix(1,0,0,1,-911,-3619)"></path><path id="SvgjsPath1040" d="M955.934 3685.82C955.6379999999999 3685.82 955.3389999999999 3685.76 955.06 3685.63C954.337 3685.29 953.8739999999999 3684.56 953.8739999999999 3683.76L953.8739999999999 3654.2400000000002C953.8739999999999 3653.44 954.3369999999999 3652.71 955.06 3652.3700000000003C955.7829999999999 3652.03 956.64 3652.1400000000003 957.2529999999999 3652.6500000000005L974.9669999999999 3667.4200000000005C975.4369999999999 3667.8100000000004 975.7089999999998 3668.3900000000003 975.7089999999998 3669.0000000000005C975.7089999999998 3669.6100000000006 975.4369999999998 3670.1900000000005 974.9669999999999 3670.5800000000004L957.2529999999999 3685.3400000000006C956.876 3685.6600000000008 956.4069999999999 3685.8200000000006 955.934 3685.8200000000006ZM957.994 3658.63L957.994 3679.36L970.431 3669ZM960.937 3704C955.072 3704 949.173 3702.54 943.831 3699.53C942.839 3698.9700000000003 942.488 3697.71 943.046 3696.7200000000003C943.604 3695.7300000000005 944.86 3695.38 945.8520000000001 3695.94C957.8700000000001 3702.7000000000003 973.0820000000001 3700.61 982.8450000000001 3690.85C994.8920000000002 3678.7999999999997 994.8920000000002 3659.2 982.8450000000001 3647.15C970.7980000000001 3635.1 951.1960000000001 3635.1 939.1500000000001 3647.15C927.104 3659.2000000000003 927.104 3678.8 939.1500000000001 3690.85C939.955 3691.65 939.955 3692.95 939.1500000000001 3693.7599999999998C938.3470000000001 3694.56 937.0420000000001 3694.56 936.2370000000001 3693.7599999999998C922.5840000000001 3680.1 922.5840000000001 3657.89 936.2370000000001 3644.24C949.8910000000001 3630.58 972.104 3630.58 985.7590000000001 3644.24C999.4120000000001 3657.89 999.4120000000001 3680.1 985.7590000000001 3693.7599999999998C979.0330000000001 3700.4799999999996 970.0260000000002 3703.9999999999995 960.9370000000001 3703.9999999999995Z " fill="#000000" fill-opacity="1" transform="matrix(1,0,0,1,-911,-3619)"></path><path id="SvgjsPath1041" d="M955.934 3685.82C955.6379999999999 3685.82 955.3389999999999 3685.76 955.06 3685.63C954.337 3685.29 953.8739999999999 3684.56 953.8739999999999 3683.76L953.8739999999999 3654.2400000000002C953.8739999999999 3653.44 954.3369999999999 3652.71 955.06 3652.3700000000003C955.7829999999999 3652.03 956.64 3652.1400000000003 957.2529999999999 3652.6500000000005L974.9669999999999 3667.4200000000005C975.4369999999999 3667.8100000000004 975.7089999999998 3668.3900000000003 975.7089999999998 3669.0000000000005C975.7089999999998 3669.6100000000006 975.4369999999998 3670.1900000000005 974.9669999999999 3670.5800000000004L957.2529999999999 3685.3400000000006C956.876 3685.6600000000008 956.4069999999999 3685.8200000000006 955.934 3685.8200000000006ZM957.994 3658.63L957.994 3679.36L970.431 3669ZM960.937 3704C955.072 3704 949.173 3702.54 943.831 3699.53C942.839 3698.9700000000003 942.488 3697.71 943.046 3696.7200000000003C943.604 3695.7300000000005 944.86 3695.38 945.8520000000001 3695.94C957.8700000000001 3702.7000000000003 973.0820000000001 3700.61 982.8450000000001 3690.85C994.8920000000002 3678.7999999999997 994.8920000000002 3659.2 982.8450000000001 3647.15C970.7980000000001 3635.1 951.1960000000001 3635.1 939.1500000000001 3647.15C927.104 3659.2000000000003 927.104 3678.8 939.1500000000001 3690.85C939.955 3691.65 939.955 3692.95 939.1500000000001 3693.7599999999998C938.3470000000001 3694.56 937.0420000000001 3694.56 936.2370000000001 3693.7599999999998C922.5840000000001 3680.1 922.5840000000001 3657.89 936.2370000000001 3644.24C949.8910000000001 3630.58 972.104 3630.58 985.7590000000001 3644.24C999.4120000000001 3657.89 999.4120000000001 3680.1 985.7590000000001 3693.7599999999998C979.0330000000001 3700.4799999999996 970.0260000000002 3703.9999999999995 960.9370000000001 3703.9999999999995Z " fill="#ffffff" fill-opacity="1" transform="matrix(1,0,0,1,-911,-3619)"></path></svg>