<svg id="SvgjsSvg1058" xmlns="http://www.w3.org/2000/svg" version="1.1" xmlns:xlink="http://www.w3.org/1999/xlink" xmlns:svgjs="http://svgjs.com/svgjs" width="54" height="44" viewBox="0 0 54 44"><title>icon</title><desc>Created with Avocode.</desc><defs id="SvgjsDefs1059"></defs><path id="SvgjsPath1060" d="M1387 4911.84C1387 4913.32 1387 4912.6 1387 4913.54C1387 4914.47 1386.24 4915.23 1385.31 4915.23L1334.69 4915.23C1333.76 4915.23 1333 4914.469999999999 1333 4913.54C1333 4912.6 1333 4913.22 1333 4911.84C1333 4897.46037 1344.18943 4885.6506 1358.30892 4884.7700700000005C1358.30077 4884.640160000001 1358.31 4881.39 1358.31 4881.39L1354.94 4881.39C1354.01 4881.39 1353.25 4880.63 1353.25 4879.6900000000005C1353.25 4878.76 1354.01 4878.000000000001 1354.94 4878.000000000001L1365.06 4878.000000000001C1365.99 4878.000000000001 1366.75 4878.760000000001 1366.75 4879.6900000000005C1366.75 4880.63 1365.99 4881.39 1365.06 4881.39L1361.69 4881.39L1361.69 4884.77C1375.81 4885.650000000001 1387 4897.46 1387 4911.84ZM1387 4920.3C1387 4921.24 1386.24 4922 1385.31 4922L1334.69 4922C1333.76 4922 1333 4921.24 1333 4920.3C1333 4919.37 1333.76 4918.610000000001 1334.69 4918.610000000001L1385.31 4918.610000000001C1386.24 4918.610000000001 1387 4919.370000000001 1387 4920.3ZM1383.62 4911.84C1383.62 4898.76 1373.05 4888.16 1360 4888.16C1346.95 4888.16 1336.38 4898.76 1336.38 4911.84Z " fill="#000000" fill-opacity="1" transform="matrix(1,0,0,1,-1333,-4878)"></path><path id="SvgjsPath1061" d="M1387 4911.84C1387 4913.32 1387 4912.6 1387 4913.54C1387 4914.47 1386.24 4915.23 1385.31 4915.23L1334.69 4915.23C1333.76 4915.23 1333 4914.469999999999 1333 4913.54C1333 4912.6 1333 4913.22 1333 4911.84C1333 4897.46037 1344.18943 4885.6506 1358.30892 4884.7700700000005C1358.30077 4884.640160000001 1358.31 4881.39 1358.31 4881.39L1354.94 4881.39C1354.01 4881.39 1353.25 4880.63 1353.25 4879.6900000000005C1353.25 4878.76 1354.01 4878.000000000001 1354.94 4878.000000000001L1365.06 4878.000000000001C1365.99 4878.000000000001 1366.75 4878.760000000001 1366.75 4879.6900000000005C1366.75 4880.63 1365.99 4881.39 1365.06 4881.39L1361.69 4881.39L1361.69 4884.77C1375.81 4885.650000000001 1387 4897.46 1387 4911.84ZM1387 4920.3C1387 4921.24 1386.24 4922 1385.31 4922L1334.69 4922C1333.76 4922 1333 4921.24 1333 4920.3C1333 4919.37 1333.76 4918.610000000001 1334.69 4918.610000000001L1385.31 4918.610000000001C1386.24 4918.610000000001 1387 4919.370000000001 1387 4920.3ZM1383.62 4911.84C1383.62 4898.76 1373.05 4888.16 1360 4888.16C1346.95 4888.16 1336.38 4898.76 1336.38 4911.84Z " fill="#c7b299" fill-opacity="1" transform="matrix(1,0,0,1,-1333,-4878)"></path></svg>