<svg id="SvgjsSvg1029" xmlns="http://www.w3.org/2000/svg" version="1.1" xmlns:xlink="http://www.w3.org/1999/xlink" xmlns:svgjs="http://svgjs.com/svgjs" width="5" height="8" viewBox="0 0 5 8"><title>arrow</title><desc>Created with Avocode.</desc><defs id="SvgjsDefs1030"></defs><path id="SvgjsPath1031" d="M460.951 6714.81L464.786 6711.35C464.999 6711.160000000001 464.999 6710.84 464.786 6710.650000000001L464.765 6710.64L460.95099999999996 6707.18C460.73699999999997 6706.990000000001 460.388 6706.990000000001 460.174 6707.18H460.16999999999996C460.068 6707.27 460.003 6707.400000000001 460.003 6707.54V6714.46C460.003 6714.6 460.07099999999997 6714.72 460.176 6714.81H460.174C460.39 6715.01 460.73699999999997 6715.01 460.95099999999996 6714.81Z " fill="#000000" fill-opacity="1" transform="matrix(1,0,0,1,-460,-6707)"></path><path id="SvgjsPath1032" d="M460.951 6714.81L464.786 6711.35C464.999 6711.160000000001 464.999 6710.84 464.786 6710.650000000001L464.765 6710.64L460.95099999999996 6707.18C460.73699999999997 6706.990000000001 460.388 6706.990000000001 460.174 6707.18H460.16999999999996C460.068 6707.27 460.003 6707.400000000001 460.003 6707.54V6714.46C460.003 6714.6 460.07099999999997 6714.72 460.176 6714.81H460.174C460.39 6715.01 460.73699999999997 6715.01 460.95099999999996 6714.81Z " fill="#d1d1d1" fill-opacity="1" transform="matrix(1,0,0,1,-460,-6707)"></path></svg>