<svg id="SvgjsSvg1000" xmlns="http://www.w3.org/2000/svg" version="1.1" xmlns:xlink="http://www.w3.org/1999/xlink" xmlns:svgjs="http://svgjs.com/svgjs" width="24" height="25" viewBox="0 0 24 25"><title>icon-search</title><desc>Created with Avocode.</desc><defs id="SvgjsDefs1001"></defs><path id="SvgjsPath1007" d="M1545.76 77.6815L1539.57 71.5865C1541.1899999999998 69.8246 1542.1899999999998 67.4935 1542.1899999999998 64.9286C1542.1899999999998 59.443400000000004 1537.6699999999998 54.997800000000005 1532.09 54.997800000000005C1526.52 54.997800000000005 1522 59.443400000000004 1522 64.9286C1522 70.4157 1526.52 74.8622 1532.09 74.8622C1534.5 74.8622 1536.7099999999998 74.028 1538.4499999999998 72.6438L1544.6599999999999 78.7633C1544.9699999999998 79.0616 1545.4599999999998 79.0616 1545.7599999999998 78.7633C1546.0599999999997 78.4637 1546.0599999999997 77.9793 1545.7599999999998 77.6815ZM1532.09 73.3338C1527.3799999999999 73.3338 1523.55 69.57159999999999 1523.55 64.92859999999999C1523.55 60.28799999999999 1527.3799999999999 56.52489999999999 1532.09 56.52489999999999C1536.81 56.52489999999999 1540.6299999999999 60.28799999999999 1540.6299999999999 64.92859999999999C1540.6299999999999 69.57159999999999 1536.81 73.3338 1532.09 73.3338Z " fill="#000000" fill-opacity="1" transform="matrix(1,0,0,1,-1522,-54)"></path><path id="SvgjsPath1008" d="M1545.76 77.6815L1539.57 71.5865C1541.1899999999998 69.8246 1542.1899999999998 67.4935 1542.1899999999998 64.9286C1542.1899999999998 59.443400000000004 1537.6699999999998 54.997800000000005 1532.09 54.997800000000005C1526.52 54.997800000000005 1522 59.443400000000004 1522 64.9286C1522 70.4157 1526.52 74.8622 1532.09 74.8622C1534.5 74.8622 1536.7099999999998 74.028 1538.4499999999998 72.6438L1544.6599999999999 78.7633C1544.9699999999998 79.0616 1545.4599999999998 79.0616 1545.7599999999998 78.7633C1546.0599999999997 78.4637 1546.0599999999997 77.9793 1545.7599999999998 77.6815ZM1532.09 73.3338C1527.3799999999999 73.3338 1523.55 69.57159999999999 1523.55 64.92859999999999C1523.55 60.28799999999999 1527.3799999999999 56.52489999999999 1532.09 56.52489999999999C1536.81 56.52489999999999 1540.6299999999999 60.28799999999999 1540.6299999999999 64.92859999999999C1540.6299999999999 69.57159999999999 1536.81 73.3338 1532.09 73.3338Z " fill="#ffffff" fill-opacity="1" transform="matrix(1,0,0,1,-1522,-54)"></path></svg>