<svg id="SvgjsSvg1009" xmlns="http://www.w3.org/2000/svg" version="1.1" xmlns:xlink="http://www.w3.org/1999/xlink" xmlns:svgjs="http://svgjs.com/svgjs" width="18" height="25" viewBox="0 0 18 25"><title>icon-cart</title><desc>Created with Avocode.</desc><defs id="SvgjsDefs1010"></defs><path id="SvgjsPath1011" d="M1491 57.9985L1489.5 57.9985C1489.5 56.3417 1487.48 54.9982 1485 54.9982C1482.51 54.9982 1480.5 56.341699999999996 1480.5 57.9985L1479 57.9985C1477.35 57.9985 1476 59.3412 1476 60.9972L1476 75.9952C1476 77.6511 1477.35 78.9943 1479 78.9943L1491 78.9943C1492.65 78.9943 1493.99 77.6511 1493.99 75.9952L1493.99 60.9972C1493.99 59.3412 1492.65 57.9985 1491 57.9985ZM1492.49 75.9952C1492.49 76.8231 1491.82 77.4941 1491 77.4941L1479 77.4941C1478.17 77.4941 1477.5 76.8231 1477.5 75.9952L1477.5 74.4954L1492.49 74.4954ZM1485 56.4984C1486.66 56.4984 1488 56.962399999999995 1488 57.9985L1482 57.9985C1482 56.9624 1483.34 56.4984 1485 56.4984ZM1492.49 72.9952L1477.5 72.9952L1477.5 60.9972C1477.5 60.1688 1478.17 59.4975 1479 59.4975L1480.5 59.4975L1480.5 63.9975L1482 63.9975L1482 59.4975L1488 59.4975L1488 63.9975L1489.5 63.9975L1489.5 59.4975L1491 59.4975C1491.82 59.4975 1492.49 60.168800000000005 1492.49 60.9972Z " fill="#000000" fill-opacity="1" transform="matrix(1,0,0,1,-1476,-54)"></path><path id="SvgjsPath1012" d="M1491 57.9985L1489.5 57.9985C1489.5 56.3417 1487.48 54.9982 1485 54.9982C1482.51 54.9982 1480.5 56.341699999999996 1480.5 57.9985L1479 57.9985C1477.35 57.9985 1476 59.3412 1476 60.9972L1476 75.9952C1476 77.6511 1477.35 78.9943 1479 78.9943L1491 78.9943C1492.65 78.9943 1493.99 77.6511 1493.99 75.9952L1493.99 60.9972C1493.99 59.3412 1492.65 57.9985 1491 57.9985ZM1492.49 75.9952C1492.49 76.8231 1491.82 77.4941 1491 77.4941L1479 77.4941C1478.17 77.4941 1477.5 76.8231 1477.5 75.9952L1477.5 74.4954L1492.49 74.4954ZM1485 56.4984C1486.66 56.4984 1488 56.962399999999995 1488 57.9985L1482 57.9985C1482 56.9624 1483.34 56.4984 1485 56.4984ZM1492.49 72.9952L1477.5 72.9952L1477.5 60.9972C1477.5 60.1688 1478.17 59.4975 1479 59.4975L1480.5 59.4975L1480.5 63.9975L1482 63.9975L1482 59.4975L1488 59.4975L1488 63.9975L1489.5 63.9975L1489.5 59.4975L1491 59.4975C1491.82 59.4975 1492.49 60.168800000000005 1492.49 60.9972Z " fill="#ffffff" fill-opacity="1" transform="matrix(1,0,0,1,-1476,-54)"></path></svg>