<svg id="SvgjsSvg1009" xmlns="http://www.w3.org/2000/svg" version="1.1" xmlns:xlink="http://www.w3.org/1999/xlink" xmlns:svgjs="http://svgjs.com/svgjs" width="21" height="21" viewBox="0 0 21 21"><title>01</title><desc>Created with Avocode.</desc><defs id="SvgjsDefs1010"></defs><path id="SvgjsPath1011" d="M935.5 4510C929.702 4510 925.001 4514.7 925.001 4520.5C925.001 4526.3 929.702 4531 935.5 4531C941.299 4531 945.998 4526.3 945.998 4520.5C945.998 4514.7 941.2990000000001 4510 935.5 4510ZM938.789 4521L934.25 4525.54C933.977 4525.81 933.533 4525.81 933.26 4525.54C932.987 4525.26 932.987 4524.82 933.26 4524.55L937.307 4520.5L933.26 4516.45C932.987 4516.179999999999 932.987 4515.74 933.26 4515.46C933.533 4515.19 933.977 4515.19 934.25 4515.46L938.789 4520C938.927 4520.14 938.995 4520.32 938.994 4520.5C938.994 4520.68 938.927 4520.86 938.789 4521Z " fill="#000000" fill-opacity="1" transform="matrix(1,0,0,1,-925,-4510)"></path><path id="SvgjsPath1012" d="M935.5 4510C929.702 4510 925.001 4514.7 925.001 4520.5C925.001 4526.3 929.702 4531 935.5 4531C941.299 4531 945.998 4526.3 945.998 4520.5C945.998 4514.7 941.2990000000001 4510 935.5 4510ZM938.789 4521L934.25 4525.54C933.977 4525.81 933.533 4525.81 933.26 4525.54C932.987 4525.26 932.987 4524.82 933.26 4524.55L937.307 4520.5L933.26 4516.45C932.987 4516.179999999999 932.987 4515.74 933.26 4515.46C933.533 4515.19 933.977 4515.19 934.25 4515.46L938.789 4520C938.927 4520.14 938.995 4520.32 938.994 4520.5C938.994 4520.68 938.927 4520.86 938.789 4521Z " fill="#c7b299" fill-opacity="1" transform="matrix(1,0,0,1,-925,-4510)"></path></svg>