<svg id="SvgjsSvg1062" xmlns="http://www.w3.org/2000/svg" version="1.1" xmlns:xlink="http://www.w3.org/1999/xlink" xmlns:svgjs="http://svgjs.com/svgjs" width="22" height="22" viewBox="0 0 22 22"><title>left</title><desc>Created with Avocode.</desc><defs id="SvgjsDefs1063"></defs><path id="SvgjsPath1064" d="M935.003 5771.01C935.003 5777.08 939.921 5781.99 945.9870000000001 5781.99C952.0530000000001 5781.99 956.9720000000001 5777.08 956.9720000000001 5771.01C956.9720000000001 5764.9400000000005 952.0530000000001 5760.030000000001 945.9870000000001 5760.030000000001C939.921 5760.030000000001 935.003 5764.9400000000005 935.003 5771.01ZM942.583 5770.43L947.355 5765.66C947.642 5765.37 948.1080000000001 5765.37 948.395 5765.66C948.682 5765.95 948.682 5766.42 948.395 5766.7L944.141 5770.96L948.395 5775.21C948.682 5775.5 948.682 5775.96 948.395 5776.25C948.108 5776.54 947.6419999999999 5776.54 947.355 5776.25L942.583 5771.48C942.438 5771.33 942.366 5771.15 942.367 5770.959999999999C942.367 5770.7699999999995 942.438 5770.579999999999 942.583 5770.429999999999ZM936.475 5771.01C936.475 5765.77 940.743 5761.5 945.9870000000001 5761.5C951.2320000000001 5761.5 955.5010000000001 5765.77 955.5010000000001 5771.01C955.5010000000001 5776.25 951.2320000000001 5780.52 945.9870000000001 5780.52C940.743 5780.52 936.4750000000001 5776.25 936.4750000000001 5771.01Z " fill="#000000" fill-opacity="1" transform="matrix(1,0,0,1,-935,-5760)"></path><path id="SvgjsPath1065" d="M935.003 5771.01C935.003 5777.08 939.921 5781.99 945.9870000000001 5781.99C952.0530000000001 5781.99 956.9720000000001 5777.08 956.9720000000001 5771.01C956.9720000000001 5764.9400000000005 952.0530000000001 5760.030000000001 945.9870000000001 5760.030000000001C939.921 5760.030000000001 935.003 5764.9400000000005 935.003 5771.01ZM942.583 5770.43L947.355 5765.66C947.642 5765.37 948.1080000000001 5765.37 948.395 5765.66C948.682 5765.95 948.682 5766.42 948.395 5766.7L944.141 5770.96L948.395 5775.21C948.682 5775.5 948.682 5775.96 948.395 5776.25C948.108 5776.54 947.6419999999999 5776.54 947.355 5776.25L942.583 5771.48C942.438 5771.33 942.366 5771.15 942.367 5770.959999999999C942.367 5770.7699999999995 942.438 5770.579999999999 942.583 5770.429999999999ZM936.475 5771.01C936.475 5765.77 940.743 5761.5 945.9870000000001 5761.5C951.2320000000001 5761.5 955.5010000000001 5765.77 955.5010000000001 5771.01C955.5010000000001 5776.25 951.2320000000001 5780.52 945.9870000000001 5780.52C940.743 5780.52 936.4750000000001 5776.25 936.4750000000001 5771.01Z " fill="#d1d1d1" fill-opacity="1" transform="matrix(1,0,0,1,-935,-5760)"></path></svg>