<svg id="SvgjsSvg1021" xmlns="http://www.w3.org/2000/svg" version="1.1" xmlns:xlink="http://www.w3.org/1999/xlink" xmlns:svgjs="http://svgjs.com/svgjs" width="5" height="8" viewBox="0 0 5 8"><title>arrow</title><desc>Created with Avocode.</desc><defs id="SvgjsDefs1022"></defs><path id="SvgjsPath1023" d="M889.951 5686.82L893.785 5683.349999999999C893.999 5683.16 893.999 5682.839999999999 893.785 5682.65L893.765 5682.639999999999L889.951 5679.179999999999C889.737 5678.99 889.388 5678.99 889.174 5679.179999999999H889.17C889.068 5679.2699999999995 889.0029999999999 5679.4 889.0029999999999 5679.539999999999V5686.459999999999C889.0029999999999 5686.599999999999 889.0709999999999 5686.719999999999 889.1759999999999 5686.8099999999995L889.174 5686.82C889.39 5687.009999999999 889.737 5687.009999999999 889.951 5686.82Z " fill="#000000" fill-opacity="1" transform="matrix(1,0,0,1,-889,-5679)"></path><path id="SvgjsPath1024" d="M889.951 5686.82L893.785 5683.349999999999C893.999 5683.16 893.999 5682.839999999999 893.785 5682.65L893.765 5682.639999999999L889.951 5679.179999999999C889.737 5678.99 889.388 5678.99 889.174 5679.179999999999H889.17C889.068 5679.2699999999995 889.0029999999999 5679.4 889.0029999999999 5679.539999999999V5686.459999999999C889.0029999999999 5686.599999999999 889.0709999999999 5686.719999999999 889.1759999999999 5686.8099999999995L889.174 5686.82C889.39 5687.009999999999 889.737 5687.009999999999 889.951 5686.82Z " fill="#c7b299" fill-opacity="1" transform="matrix(1,0,0,1,-889,-5679)"></path></svg>