<?xml version="1.0" encoding="utf-8"?>
<!-- Generator: Adobe Illustrator 16.0.0, SVG Export Plug-In . SVG Version: 6.00 Build 0)  -->
<!DOCTYPE svg PUBLIC "-//W3C//DTD SVG 1.1//EN" "http://www.w3.org/Graphics/SVG/1.1/DTD/svg11.dtd">
<svg version="1.1" id="Слой_1" xmlns="http://www.w3.org/2000/svg" xmlns:xlink="http://www.w3.org/1999/xlink" x="0px" y="0px"
	 width="163px" height="41px" viewBox="0 0 163 41" enable-background="new 0 0 163 41" xml:space="preserve">
<g>
	<path fill="#38A2DB" d="M97.635,31.666l0.097-0.923h65.425V11.481H97.667V8.595c0-4.214-20.081-7.158-48.834-7.158
		C20.081,1.438,0,4.381,0,8.595v22.962c0,4.216,20.081,7.16,48.833,7.16c2.99,0,10.87-0.053,19.46-0.538l0.167-0.01l0.275,0.072
		c0.008,0,0.118-0.036,0.192-0.063l0.279-0.057C95.139,36.57,97.522,32.79,97.635,31.666z M156.273,13.042h5.322v16.14h-5.322
		V13.042z M97.667,13.042h57.042v16.14h-6.563v-4.798c0-0.432-0.349-0.782-0.782-0.782c-0.43,0-0.778,0.351-0.778,0.782v4.798
		h-6.943v-8.626c0-0.43-0.35-0.781-0.782-0.781c-0.434,0-0.783,0.351-0.783,0.781v8.626h-6.938v-4.798
		c0-0.432-0.35-0.782-0.783-0.782c-0.43,0-0.778,0.351-0.778,0.782v4.798h-6.943v-8.626c0-0.43-0.349-0.781-0.778-0.781
		c-0.434,0-0.783,0.351-0.783,0.781v8.626h-6.938v-4.798c0-0.432-0.35-0.782-0.783-0.782c-0.433,0-0.782,0.351-0.782,0.782v4.798
		h-6.943v-8.626c0-0.438-0.341-0.781-0.778-0.781c-0.43,0-0.778,0.351-0.778,0.781v8.626h-6.401V13.042z M96.105,31.698
		l-0.345,0.307c-0.976,0.873-3.7,1.714-8.091,2.505l-1.208,0.217v-5.88c0-0.43-0.35-0.78-0.783-0.78
		c-0.429,0-0.778,0.351-0.778,0.78v6.126L84.018,35.1c-1.499,0.215-3.159,0.415-4.922,0.607l-1.138,0.125V22.61
		c0-0.43-0.352-0.781-0.781-0.781c-0.43,0-0.781,0.352-0.781,0.781v13.374l-0.935,0.084c-1.559,0.141-3.188,0.271-4.908,0.39
		l-1.098,0.076v-7.688c0-0.43-0.351-0.78-0.783-0.78c-0.429,0-0.781,0.351-0.781,0.78v7.784l-0.971,0.052
		c-1.573,0.086-3.216,0.161-4.9,0.225l-1.068,0.04V25.021c0-0.429-0.351-0.78-0.783-0.78c-0.429,0-0.78,0.352-0.78,0.78v11.98
		l-1,0.028c-2.093,0.056-4.288,0.088-6.528,0.106l-1.035,0.008v-8.298c0-0.43-0.351-0.78-0.781-0.78c-0.429,0-0.78,0.351-0.78,0.78
		v8.308l-1.03-0.002c-1.671-0.002-3.305-0.016-4.902-0.04l-1.011-0.017V25.021c0-0.429-0.351-0.78-0.781-0.78
		c-0.429,0-0.78,0.352-0.78,0.78v12.047l-1.054-0.028c-1.68-0.044-3.319-0.097-4.902-0.161l-0.985-0.04v-7.992
		c0-0.43-0.351-0.78-0.78-0.78c-0.43,0-0.781,0.351-0.781,0.78v7.914l-1.082-0.058c-1.704-0.091-3.339-0.191-4.908-0.304
		l-0.953-0.067V23.214c0-0.432-0.352-0.782-0.781-0.782c-0.43,0-0.781,0.351-0.781,0.782v12.993l-1.118-0.099
		c-1.744-0.152-3.371-0.32-4.912-0.495l-0.911-0.104v-6.662c0-0.43-0.351-0.78-0.781-0.78c-0.429,0-0.78,0.351-0.78,0.78v6.474
		l-1.17-0.163c-1.846-0.257-3.498-0.527-4.938-0.802L8.31,34.194v-9.173c0-0.429-0.349-0.78-0.781-0.78
		c-0.429,0-0.78,0.352-0.78,0.78v8.852l-1.3-0.356c-2.404-0.665-3.175-1.181-3.544-1.512l-0.343-0.307V10.564l1.431,0.612
		c10.196,4.358,39.975,4.579,45.84,4.579c5.868,0,35.651-0.221,45.84-4.579l1.433-0.612V31.698z M95.103,9.494
		c-4.102,2.278-21.712,4.7-46.272,4.7c-24.556,0-42.168-2.422-46.274-4.7L0.939,8.595l1.62-0.899
		c4.104-2.277,21.716-4.698,46.272-4.698c24.562,0,42.174,2.42,46.272,4.698l1.617,0.899L95.103,9.494z"/>
	<path fill="#38A2DB" d="M47.448,9.456c9.59,0,9.59-0.421,9.59-1.26c0-0.838,0-1.26-9.59-1.26c-9.588,0-9.588,0.422-9.588,1.26
		C37.86,9.035,37.86,9.456,47.448,9.456z"/>
</g>
</svg>
