<?xml version="1.0" encoding="utf-8"?>
<!-- Generator: Adobe Illustrator 16.0.0, SVG Export Plug-In . SVG Version: 6.00 Build 0)  -->
<!DOCTYPE svg PUBLIC "-//W3C//DTD SVG 1.1//EN" "http://www.w3.org/Graphics/SVG/1.1/DTD/svg11.dtd">
<svg version="1.1" id="Icon_1_" xmlns="http://www.w3.org/2000/svg" xmlns:xlink="http://www.w3.org/1999/xlink" x="0px" y="0px"
	 width="126px" height="83px" viewBox="0 0 126 83" enable-background="new 0 0 126 83" xml:space="preserve">
<g id="Icon">
	<g>
		<path fill-rule="evenodd" clip-rule="evenodd" fill="#FFE84A" d="M55.125-0.009c-30.4,0-55.125,24.819-55.125,55.335
			c0,0.161,0.028,0.315,0.047,0.471c-0.029,0.497-0.047,0.995-0.047,1.498c0,14.167,11.479,25.691,25.59,25.691
			c14.114,0,25.593-11.524,25.593-25.691S39.703,31.605,25.589,31.605c-4.879,0-9.443,1.378-13.327,3.767
			C19.787,19.159,36.168,7.883,55.125,7.883c2.173,0,3.944-1.753,3.944-3.959C59.068,1.746,57.297-0.009,55.125-0.009z
			 M122.059-0.009c-30.4,0-55.129,24.819-55.129,55.335c0,0.16,0.029,0.313,0.048,0.468c-0.028,0.497-0.048,0.998-0.048,1.501
			c0,14.167,11.48,25.691,25.594,25.691s25.612-11.524,25.612-25.691s-11.499-25.689-25.612-25.689
			c-4.869,0-9.425,1.372-13.305,3.752c7.522-16.204,23.89-27.475,42.84-27.475c2.191,0,3.941-1.753,3.941-3.959
			C126,1.746,124.25-0.009,122.059-0.009z"/>
	</g>
</g>
</svg>
