<?xml version="1.0" encoding="utf-8"?>
<!-- Generator: Adobe Illustrator 16.0.0, SVG Export Plug-In . SVG Version: 6.00 Build 0)  -->
<!DOCTYPE svg PUBLIC "-//W3C//DTD SVG 1.1//EN" "http://www.w3.org/Graphics/SVG/1.1/DTD/svg11.dtd">
<svg version="1.1" id="Дед_мороз_1_" xmlns="http://www.w3.org/2000/svg" xmlns:xlink="http://www.w3.org/1999/xlink"
	 x="0px" y="0px" width="241px" height="76px" viewBox="0 0 241 76" enable-background="new 0 0 241 76" xml:space="preserve">
<path d="M3.265,19.211l-2.412,2.071l4.412,42.585l-2.76,1.796L6.86,76l1.681-1.093l-3.489-8.396l26.455-17.215l3.667,8.28
	l1.681-1.094L32.32,46.262l-3.4,2.212L3.265,19.211z M4.341,32.885l-1.08-10.379l0.176-0.133l5.891,6.731l17.913,20.462L7.42,62.465
	L4.341,32.885z"/>
<path d="M43.231,42.321c-5.715,2.699-9.979,1.351-12.792-4.045c4.62-1.739,8.012-4.182,10.176-7.327
	c2.165-3.145,2.572-6.146,1.223-9.004c-1.725-3.652-4.758-4.455-9.098-2.405c-3.255,1.537-5.313,4.091-6.171,7.658
	c-0.859,3.568-0.34,7.359,1.556,11.375c1.64,3.472,3.782,5.689,6.426,6.653c2.645,0.963,5.72,0.616,9.229-1.041
	c5.281-2.493,8.301-6.309,9.061-11.444l-1.543-0.599C50.55,36.742,47.861,40.135,43.231,42.321L43.231,42.321z M37.415,20.518
	c1.031,0.266,1.836,1.057,2.416,2.376c1.111,2.352,0.71,4.83-1.2,7.435c-1.911,2.605-4.923,4.703-9.039,6.292
	c-1.373-3.377-1.71-6.48-1.012-9.31c0.699-2.828,2.296-4.833,4.792-6.012C35.034,20.514,36.382,20.253,37.415,20.518z"/>
<path d="M70.906,34.568L66.79,7.115L64.73,8.147c-3.269,0.789-5.246,1.292-5.93,1.51c-4.375,1.392-7.366,3.939-8.974,7.641
	C48.218,21,48.19,25.29,49.742,30.169c2.062,6.48,5.592,8.925,10.59,7.335c3.587-1.142,6.151-3.782,7.69-7.924
	c0.085,0.554,0.213,1.395,0.384,2.521c0.172,1.128,0.3,1.968,0.383,2.521c0.499,3.283,0.215,5.986-0.851,8.11
	c-1.067,2.123-2.865,3.629-5.394,4.519c-2.124,0.717-4.334,0.958-6.633,0.725l0.257,1.996c2.205,0.096,4.429-0.213,6.67-0.926
	c2.811-0.895,4.941-2.413,6.394-4.553c1.451-2.142,2.078-4.775,1.878-7.902C70.971,35.702,71.029,35.453,70.906,34.568z
	 M55.123,35.006c-1.328-1.005-2.422-2.86-3.283-5.567c-1.371-4.307-1.399-8.086-0.085-11.338c1.315-3.252,3.781-5.453,7.4-6.604
	c1.904-0.605,3.869-1.085,5.897-1.438l2.573,16.911c-1.629,4.65-4.14,7.516-7.535,8.596C58.106,36.197,56.45,36.011,55.123,35.006z"
	/>
<path d="M127.854,22.917c-1.323,1.137-2.563,1.745-3.721,1.827c-0.678,0.048-1.235-0.043-1.673-0.272
	c-0.437-0.229-0.789-0.665-1.055-1.308c-0.267-0.643-0.458-1.229-0.576-1.763c-0.118-0.532-0.255-1.334-0.41-2.405l-2.512-18.534
	l-2.627,0.186c-4.295,5.076-7.558,11.481-9.788,19.218c-0.377,1.311-0.729,2.697-1.056,4.164l-0.175,0.013
	c-0.072-1.015-0.224-2.615-0.457-4.802l-2.717-17.591l-2.681,0.189c-2.841,3.289-5.417,7.39-7.724,12.305
	C88.377,19.059,86.959,24,86.433,28.97l2.095-0.147c0.461-4.243,1.811-8.859,4.044-13.85c2.234-4.989,4.471-8.666,6.71-11.03
	l0.12-0.008l3.726,23.856l1.979-0.14c0.87-4.713,2.299-9.314,4.288-13.807c1.988-4.49,4.224-8.187,6.706-11.09l0.12-0.008
	l2.222,17.287c0.33,2.463,0.855,4.23,1.578,5.301c0.721,1.072,1.999,1.544,3.835,1.414c1.557-0.11,3.102-0.811,4.634-2.102
	c1.533-1.291,2.868-2.959,4.008-5.005l-1.222-1.117C130.316,20.317,129.177,21.782,127.854,22.917z"/>
<path d="M151.195,27.092c-1.352-0.152-2.479-0.701-3.377-1.647c3.527-2.743,5.594-6.798,6.195-12.164
	c0.856-6.908-1.717-10.699-7.719-11.373c-4.055-0.455-7.506,0.707-10.354,3.486c-2.848,2.78-4.557,6.513-5.121,11.198
	c-0.43,3.454,0.01,6.171,1.318,8.148c1.307,1.979,3.432,3.133,6.373,3.463c2.703,0.304,5.239-0.236,7.609-1.621
	c1.297,1.354,2.84,2.13,4.628,2.331c3.776,0.424,7.112-1.153,10.011-4.732l-0.999-1.319C157.15,26.03,154.296,27.439,151.195,27.092
	L151.195,27.092z M133.973,23.467c-1.027-1.604-1.368-3.776-1.02-6.515c0.548-4.164,2.029-7.51,4.447-10.036
	c2.417-2.525,5.293-3.581,8.627-3.167c4.563,0.594,6.514,3.65,5.854,9.171c-0.513,4.209-2.01,7.593-4.49,10.152
	c-2.482,2.559-5.37,3.634-8.664,3.223C136.584,26.015,135,25.072,133.973,23.467z"/>
<path d="M153.306,41.291l5.239-11.784c1.984,1.462,3.969,2.456,5.953,2.983c3.033,0.807,5.89,0.718,8.566-0.268
	c1.063,1.483,2.528,2.473,4.396,2.969c3.672,0.977,7.181-0.078,10.526-3.162l-0.794-1.452c-2.972,2.77-5.985,3.748-9.038,2.937
	c-1.354-0.36-2.4-1.094-3.14-2.201c3.718-2.156,6.435-5.987,8.146-11.492c1.088-3.313,1.29-5.876,0.607-7.693
	c-0.684-1.815-2.289-3.061-4.816-3.732c-3.424-0.91-7.39-0.247-11.898,1.986l2.048-4.605l-2.202-0.213l-15.596,35.212
	L153.306,41.291z M159.399,27.589l6.704-15.069c5.08-2.393,9.076-3.203,11.986-2.43c1.9,0.506,3.1,1.467,3.596,2.881
	c0.496,1.416,0.303,3.475-0.582,6.178c-1.406,4.511-3.566,7.786-6.479,9.825c-2.913,2.041-6.098,2.602-9.554,1.683
	C163.246,30.171,161.355,29.148,159.399,27.589L159.399,27.589z"/>
<path d="M204.064,43.945c-1.248-0.542-2.164-1.396-2.746-2.565c4.176-1.589,7.34-4.86,9.488-9.814
	c2.842-6.354,1.493-10.732-4.048-13.135c-3.743-1.624-7.384-1.523-10.921,0.299c-3.537,1.823-6.264,4.892-8.178,9.206
	c-1.422,3.177-1.798,5.902-1.127,8.177c0.67,2.275,2.362,4.001,5.078,5.179c2.496,1.082,5.078,1.31,7.75,0.68
	c0.844,1.674,2.091,2.869,3.742,3.585c3.486,1.512,7.139,0.981,10.958-1.591l-0.568-1.555
	C210.068,44.675,206.926,45.187,204.064,43.945L204.064,43.945z M188.659,35.433c-0.513-1.835-0.2-4.012,0.935-6.527
	c1.744-3.821,4.142-6.585,7.193-8.293c3.051-1.706,6.109-1.872,9.177-0.499c4.188,1.903,5.157,5.398,2.909,10.482
	c-1.725,3.874-4.147,6.671-7.27,8.391c-3.123,1.72-6.198,1.901-9.228,0.543C190.41,38.634,189.171,37.268,188.659,35.433z"/>
<path d="M227.705,60.757L227.705,60.757c2.96-4.659,2.411-8.42-1.646-11.283c2.656,0.22,5.121-0.169,7.391-1.169
	c2.27-0.998,4.016-2.46,5.238-4.384c1.158-1.823,1.514-3.576,1.066-5.258c-0.447-1.683-1.65-3.146-3.607-4.391
	c-2.836-1.802-6.367-2.884-10.592-3.247c-1.565,2.465-3.452,4.762-5.658,6.891c-2.205,2.129-4.361,3.732-6.469,4.811l0.318,1.624
	c2.055-0.922,4.232-2.429,6.534-4.521c2.301-2.093,4.323-4.361,6.067-6.808c3.537,0.399,6.387,1.286,8.547,2.659
	c1.452,0.922,2.344,1.999,2.676,3.229c0.332,1.23,0.059,2.537-0.82,3.921c-1.609,2.532-3.964,4.093-7.063,4.683
	c-3.101,0.589-6.3,0.31-9.598-0.839l-1.214,1.575c2.589,0.697,4.464,1.439,5.625,2.224c3.366,2.234,3.924,5.124,1.672,8.669
	c-1.793,2.746-3.948,4.422-6.465,5.026c-2.518,0.604-5.097,0.114-7.739-1.47c-1.62-1.029-3.146-2.545-4.577-4.544l-1.365,1.479
	c1.293,1.769,2.934,3.286,4.926,4.553c2.701,1.716,5.433,2.433,8.195,2.15s5.189-1.584,7.279-3.904
	C227.543,61.563,227.226,61.466,227.705,60.757z"/>
</svg>
