<?xml version="1.0" encoding="utf-8"?>
<!-- Generator: Adobe Illustrator 16.0.0, SVG Export Plug-In . SVG Version: 6.00 Build 0)  -->
<!DOCTYPE svg PUBLIC "-//W3C//DTD SVG 1.1//EN" "http://www.w3.org/Graphics/SVG/1.1/DTD/svg11.dtd">
<svg version="1.1" id="Слой_1" xmlns="http://www.w3.org/2000/svg" xmlns:xlink="http://www.w3.org/1999/xlink" x="0px" y="0px"
	 width="218px" height="193px" viewBox="0 0 218 193" enable-background="new 0 0 218 193" xml:space="preserve">
<g id="Эллипс_1">
	<g>
		<path fill="#3AA3DC" d="M191.188,116.583c6.931-33.492-4.316-69.721-32.407-93.437C118.033-11.255,57.275-6.3,23.072,34.212
			C-11.13,74.724-5.825,135.453,34.922,169.854c40.747,34.401,101.505,29.447,135.708-11.065c4.32-5.118,8.011-10.558,11.079-16.227
			c-0.084-0.846,31.632-3.446,35.768-3.783C213.124,135.104,192.821,117.963,191.188,116.583z"/>
	</g>
</g>
<g>
	<path fill="#1D97D4" d="M95.998,166.266c-2.406,0-4.36-1.95-4.36-4.36V31.095c0-2.406,1.955-4.36,4.36-4.36
		c2.406,0,4.361,1.955,4.361,4.36v130.81C100.358,164.315,98.404,166.266,95.998,166.266z M95.998,57.257
		c-0.776,0-1.551-0.204-2.246-0.624L71.951,43.552c-2.067-1.237-2.734-3.915-1.496-5.981c1.239-2.067,3.912-2.734,5.981-1.496
		l19.561,11.738l19.556-11.734c2.065-1.243,4.744-0.567,5.98,1.496c1.238,2.066,0.572,4.743-1.493,5.981L98.24,56.638
		C97.549,57.053,96.773,57.257,95.998,57.257z M117.793,157.546c-0.763,0-1.536-0.206-2.239-0.626l-19.556-11.73l-19.556,11.73
		c-2.067,1.232-4.744,0.569-5.981-1.493c-1.238-2.069-0.571-4.744,1.496-5.982l21.802-13.081c1.381-0.824,3.104-0.824,4.485,0
		l21.801,13.081c2.066,1.238,2.734,3.913,1.496,5.982C120.723,156.789,119.279,157.546,117.793,157.546z M39.362,133.563
		c-1.508,0-2.974-0.78-3.78-2.18c-1.205-2.088-0.489-4.751,1.595-5.959l113.28-65.404c2.082-1.203,4.751-0.492,5.956,1.596
		c1.204,2.089,0.489,4.752-1.595,5.957L41.538,132.98C40.853,133.378,40.099,133.563,39.362,133.563z M152.632,133.563
		c-0.74,0-1.49-0.186-2.175-0.583L37.177,67.574c-2.089-1.205-2.8-3.868-1.595-5.957c1.204-2.088,3.862-2.804,5.956-1.596
		l113.281,65.404c2.088,1.208,2.805,3.871,1.595,5.959C155.607,132.783,154.143,133.563,152.632,133.563L152.632,133.563z
		 M95.998,131.067c-0.754,0-1.505-0.198-2.18-0.582l-26.162-15.106c-1.352-0.779-2.18-2.218-2.18-3.774V81.396
		c0-1.557,0.829-3,2.18-3.775l26.162-15.105c1.352-0.781,3.009-0.781,4.361,0l26.161,15.105c1.351,0.781,2.181,2.219,2.181,3.775
		v30.209c0,1.557-0.83,3.001-2.181,3.774l-26.161,15.106C97.502,130.869,96.752,131.067,95.998,131.067z M74.196,109.086
		l21.801,12.592l21.801-12.592v-25.17L95.998,71.327L74.196,83.916V109.086z M155.988,91.397c-0.761,0-1.529-0.195-2.227-0.615
		l-20.751-12.339c-1.319-0.785-2.13-2.206-2.13-3.745V48.537c0-2.406,1.95-4.36,4.359-4.36c2.41,0,4.36,1.954,4.36,4.36v23.681
		l18.618,11.074c2.072,1.229,2.75,3.908,1.523,5.978C158.925,90.639,157.475,91.397,155.988,91.397z M56.755,148.824
		c-2.406,0-4.36-1.951-4.36-4.36V120.78l-18.618-11.074c-2.072-1.227-2.747-3.909-1.518-5.972c1.225-2.073,3.902-2.762,5.977-1.523
		l20.747,12.339c1.32,0.786,2.132,2.211,2.132,3.753v26.161C61.116,146.873,59.162,148.824,56.755,148.824z M36.013,91.397
		c-1.487,0-2.935-0.758-3.75-2.132c-1.232-2.066-0.552-4.745,1.515-5.974l18.618-11.074V48.537c0-2.406,1.954-4.36,4.36-4.36
		s4.36,1.954,4.36,4.36v26.162c0,1.539-0.812,2.96-2.132,3.745L38.237,90.783C37.54,91.203,36.772,91.397,36.013,91.397z
		 M135.24,148.824c-2.409,0-4.359-1.951-4.359-4.36v-26.161c0-1.542,0.811-2.967,2.13-3.747l20.751-12.339
		c2.066-1.234,4.747-0.551,5.974,1.521c1.229,2.072,0.552,4.741-1.521,5.974l-18.614,11.068v23.684
		C139.601,146.873,137.65,148.824,135.24,148.824z"/>
</g>
</svg>
