<?xml version="1.0" encoding="utf-8"?>
<!-- Generator: Adobe Illustrator 16.0.0, SVG Export Plug-In . SVG Version: 6.00 Build 0)  -->
<!DOCTYPE svg PUBLIC "-//W3C//DTD SVG 1.1//EN" "http://www.w3.org/Graphics/SVG/1.1/DTD/svg11.dtd">
<svg version="1.1" id="Слой_1" xmlns="http://www.w3.org/2000/svg" xmlns:xlink="http://www.w3.org/1999/xlink" x="0px" y="0px"
	 width="639px" height="227px" viewBox="0 0 639 227" enable-background="new 0 0 639 227" xml:space="preserve">
<path fill-rule="evenodd" clip-rule="evenodd" fill="#41A960" d="M573.925,217.271c-0.588,2.998,1.961,5.04,2.115,7.673
	c0.039,0.662,0.76,1.052,1.499,1.095c0.945,0.054,1.595-0.395,1.981-1.225c0.471-1.014,0.444-2.109,0.439-3.189
	c-0.037-8.323-0.087-16.646-0.131-24.969c-0.022-4.386-2.29-8.21-3.106-12.399c-0.134-0.686-0.287-1.621-1.346-1.451
	c-0.921,0.148-1.072,0.999-1.132,1.734c-0.264,3.23-0.586,6.463-0.68,9.699c-0.232,8.09-1.571,16.033-2.963,23.975
	c-0.071,0.409-0.175,0.817-0.202,1.23c-0.037,0.548-0.349,1.264,0.333,1.552c0.678,0.286,1.058-0.412,1.369-0.838
	C572.772,219.242,573.324,218.239,573.925,217.271z"/>
<path fill-rule="evenodd" clip-rule="evenodd" fill="#C5E2CE" d="M403.961,14.37c-0.288,1.569,0.113,2.879,1.186,4.117
	c4.503,5.204,7.204,11.546,10.807,17.32c0.374,0.6,0.564,1.35,1.646,1.923c-2.377-4.835-4.277-9.494-7.271-13.604
	c-1.852-2.543-3.566-5.186-5.422-7.727c-0.589-0.807-0.338-1.36,0.142-1.993C404.687,14.396,404.323,14.383,403.961,14.37z"/>
<path fill-rule="evenodd" clip-rule="evenodd" fill="#42A75F" d="M2.069,183.815c0.875,0.206,1.82,0.146,2.735,0.148
	c14.241,0.06,28.483,0.046,42.717-0.515c2.05-0.081,2.944,0.048,2.729,2.719c-0.845,10.444,0.418,20.781,2.409,31.035
	c0.096,0.49,0.218,0.979,0.378,1.451c0.373,1.097,0.969,1.987,2.3,1.875c1.317-0.111,1.922-1.095,1.99-2.214
	c0.147-2.409,0.113-4.829,0.129-7.245c0.007-1.085-0.066-2.135,0.895-2.975c0.709-0.618,0.659-1.505,0.306-2.32
	c-2.085-4.807-1.313-9.786-0.969-14.753c0.162-2.345,1.37-4.659,0.356-6.766c6.221,0,12.528,0.044,18.835-0.027
	c1.813-0.021,1.752,1.052,1.739,2.279c-0.088,8.833-0.17,17.666-0.242,26.499c-0.006,0.746-0.082,1.535,0.127,2.229
	c0.342,1.138,1.467,1.736,2.348,1.146c1.26-0.844,3.203-0.604,3.857-2.398c0.164-0.448,0.515-0.41,0.996-0.359
	c2.694,0.282,3.191-0.159,3.248-2.816c0.152-7.257-0.039-14.496-1.205-21.681c-0.08-0.491-0.078-0.997-0.162-1.488
	c-0.334-1.966,0-2.716,2.405-2.321c3.602,0.591,7.142,0.901,11.004,0.149c4.351-0.848,9.098,0.239,13.661,0.609
	c8.49,0.688,16.987,0.22,25.481,0.266c1.604,0.009,3.149-0.743,2.831-2.692c-0.302-1.851-1.815-1.597-3.353-1.521
	c-3.989,0.2-8.003,0.313-11.986,0.087c-1.972-0.112-2.737-2.148-3.579-3.738c-0.217-0.41-0.019-0.8,0.438-1.002
	c2.374-1.052,2.052-3.169,1.157-4.658c-2.62-4.36-4.509-8.91-5.138-13.97c-0.039-0.315-0.22-0.64-0.411-0.905
	c-7.072-9.817-11.157-21.432-18.642-31.001c-0.14-0.178-0.188-0.425-0.44-1.016c5.752,0.385,11.269,0.745,16.783,1.127
	c1.66,0.114,3.313,0.332,4.974,0.41c0.795,0.037,1.474-0.363,1.704-1.194c0.185-0.663-0.202-1.26-0.755-1.416
	c-4.419-1.25-5.366-5.794-8.188-8.558c-6.953-6.815-10.592-15.721-14.458-24.332c-2.768-6.164-5.359-12.366-9.658-17.584
	c-3.673-4.459-6.688-9.296-9.723-14.729c1.865,0,3.62,0.028,5.374-0.011c1.069-0.023,2.275,0.083,2.853-1.105
	c0.565-1.166-0.077-2.064-0.866-2.889c-2.238-2.335-1.147-5.045-0.478-7.47c0.411-1.488,0.352-2.504-0.469-3.672
	c-4.18-5.949-5.989-13.211-10.492-18.985c-0.41-0.525-0.407-0.951,0.197-1.457c1.619-1.354,1.027-2.771-0.339-3.744
	c-3.903-2.781-6.244-6.885-9.185-10.482c-0.157-0.192-0.309-0.396-0.427-0.613c-1.572-2.917-1.569-2.916-4.004-0.924
	c-0.188,0.154-0.403,0.383-0.609,0.387c-3.62,0.057-4.063,2.575-4.92,5.426c-1.544,5.135-4.767,9.513-7.847,13.865
	c-3.568,5.043-6.45,10.505-9.83,15.661c-1.268,1.935-1.85,4.09-1.556,6.428c0.236,1.877-0.536,3.573-1.103,5.258
	c-0.666,1.984-0.277,3.001,1.749,3.325c0.407,0.065,0.831,0.053,1.246,0.04c10.156-0.313,20.308-0.302,30.453,0.345
	c1.179,0.075,2.048,0.16,2.251,1.647c0.123,0.898,1.088,1.422,1.773,2.03c1.112,0.987,2.457,1.738,3.203,3.104
	c6.838,6.392,10.532,14.864,15.048,22.788c3.348,5.873,4.491,12.942,9.705,17.817c0.508,0.475,0.835,1.296,0.951,2.004
	c0.229,1.396,1.045,2.405,1.8,3.506c0.566,0.828,1.531,1.496,1.517,2.785c-4.457,0-8.782-0.008-13.108,0.005
	c-1.147,0.003-2.351-0.184-3.203,0.934c-0.842,1.104-0.021,2.111,0.362,3.261c-3.609-0.601-6.96-1.152-10.308-1.718
	c-1.299-0.219-2.818-0.289-3.233,1.095c-0.455,1.514-1.196,1.353-2.36,1.286c-2.74-0.158-5.49-0.128-8.236-0.187
	c-0.663-0.014-1.511,0.172-1.956-0.16c-2.832-2.113-6.104-1.661-9.165-1.364c-10.749,1.041-21.563,1.587-32.188,3.75
	c-1.809,0.367-3.652,0.92-5.686,0.666c1.329-3.506,2.861-6.719,4.99-9.623c0.329-0.449,0.571-1.257,1.218-1.089
	c2.309,0.6,3.208-1.163,4.09-2.543c5.156-8.068,10.217-16.223,13.599-25.225c3.035-8.081,7.792-15.006,13.376-21.456
	c0.96-2.442-1.869-1.927-2.575-3.18c-0.538-0.956-1.639,0.05-2.322,0.597c-2.913,2.331-4.198,5.771-5.788,8.945
	c-1.055,2.107-2.195,3.934-3.995,5.559c-4.441,4.011-7.574,9.097-10.241,14.379c-4.888,9.679-10.36,19.019-15.957,28.288
	c-1.592,2.638-2.358,5.691-4.355,8.12c-0.591,0.719-0.513,1.768,0.285,2.505c0.839,0.774,1.719,0.65,2.766,0.276
	c4.969-1.773,10.205-2.233,15.386-2.939c0.375-0.051,0.777,0.093,1.572,0.2c-2.299,3.301-4.454,6.322-6.533,9.396
	c-6.115,9.038-11.979,18.23-16.809,28.04c-0.487,0.989-0.994,1.976-0.311,3.061c0.383,0.606,0.141,1.115-0.145,1.63
	c-2.379,4.287-3.469,9.198-6.479,13.193C-0.564,181.672,0.343,183.407,2.069,183.815z M76.603,55.871
	c-0.498-0.004-1.063-0.066-1.298-0.58c-0.833-1.829-2.486-1.874-4.053-1.713c-9.106,0.933-18.232-1.501-27.68,0.453
	c4.457-6.467,7-13.28,10.572-19.543c3.614-6.338,6.906-12.859,10.953-19.154c6.088,13.783,15.896,25.538,19.009,40.545
	C81.728,55.879,79.165,55.887,76.603,55.871z M104.258,119.025c6.683-1.376,8.146-0.837,10.517,3.982
	c-1.348-0.101-3.08,0.285-3.684-0.369C109.225,120.613,106.604,120.268,104.258,119.025z M24.242,141.146
	c-1.374,5.237-4.368,9.663-6.919,14.309C18.563,150.167,21.389,145.644,24.242,141.146z M6.167,179.17
	c0.337-1.361,0.961-2.651,1.462-3.972c0.455-1.199,1.44-0.381,2.163-0.559c1.146-0.283,1.98-1.028,2.412-2.022
	c2.368-5.458,5.97-10.192,8.912-15.313c4.931-8.582,8.476-17.712,11.201-27.181c0.679-2.358,1.27-4.544,4.392-4.347
	c0.274,0.018,0.771-0.242,0.822-0.455c0.419-1.752,1.85-1.213,2.987-1.438c5.21-1.034,10.41,0.052,15.613-0.003
	c2.504-0.026,4.979,0.149,7.473,0.378c5.813,0.533,11.698,0.657,17.461-0.019c4.428-0.519,8.603,0.1,12.865,0.738
	c1.02,0.152,1.727,0.716,1.819,1.761c0.361,4.071,2.548,7.341,4.601,10.676c0.609,0.99,1.251,1.95,1.123,3.228
	c-0.217,2.174,0.592,4.089,1.677,5.903c6.033,10.089,11.472,20.483,16.071,31.308c0.577,1.358,2.121,3.125,1.401,4.019
	c-0.948,1.179-3.091,0.409-4.698,0.271c-13.932-1.201-27.88-2.348-41.863-2.23c-8.839,0.073-17.639-0.627-26.414-0.881
	c0.315-0.054,0.64-0.079,0.945-0.166c0.875-0.247,1.979-0.414,1.875-1.606c-0.101-1.144-1.191-1.253-2.1-1.366
	c-2.325-0.29-4.649-0.322-6.969,0.098c-2.54,0.46-5.091,0.862-7.625,1.35c-5.654,1.089-11.419,1.221-17.099,2.018
	c-3.06,0.43-6.091,0.746-9.167,0.674C6.92,180.018,5.9,180.247,6.167,179.17z"/>
<g>
	<path fill-rule="evenodd" clip-rule="evenodd" fill="#42A75F" d="M380.424,113.387c0.101,0.209,0.163,0.396,0.208,0.572
		C380.553,113.787,380.481,113.603,380.424,113.387z"/>
	<path fill-rule="evenodd" clip-rule="evenodd" fill="#42A75F" d="M341.925,183.399c0.056,0.642,0.484,1.071,1.129,1.16
		c0.647,0.089,1.285-0.219,1.363-0.829c0.307-2.389,2.066-2.146,3.559-1.854c4.643,0.913,9.305,0.35,13.956,0.397
		c2.013,0.021,3.993-0.235,5.878-0.983c1.939-0.77,3.949-0.481,5.932-0.393c2.911,0.132,5.817,0.363,8.725,0.574
		c1.381,0.101,2.119,0.541,1.688,2.234c-0.545,2.131-0.136,4.3,0.446,6.41c1.021,3.703,1.772,7.443,1.854,11.309
		c0.043,2.042,3.169,4.373,5.113,3.904c1.189-0.286,0.807-1.276,0.819-2.052c0.083-5.188-0.912-10.271-1.569-15.385
		c-0.524-4.077-0.518-4.121,3.529-4.095c4.915,0.032,9.832,0.111,14.747,0.042c1.55-0.021,1.969,0.453,1.962,1.983
		c-0.041,8.333,1.24,16.59,1.564,24.907c0.064,1.674,0.432,4.039,2.468,4.088c2.589,0.063,1.718-2.479,1.979-4.063
		c0.067-0.405,0.063-0.821,0.156-1.237c0.351,4.04,0.388,8.141,2.394,11.809c1.065-0.239,0.903-0.948,0.896-1.459
		c-0.113-7.91-0.098-15.828-1.88-23.613c-0.817-3.572-1.186-7.225-1.686-10.854c-0.199-1.451,0.262-1.642,1.443-1.781
		c5.75-0.683,11.476-0.556,17.174,0.435c1.663,0.29,3.317,0.293,4.978,0.183c0.824-0.054,1.958-0.116,2.171-0.947
		c0.451-1.763,1.787-1.441,2.749-1.186c4.521,1.197,9.109,0.511,13.662,0.699c1.817,0.075,3.65-0.195,5.427,0.538
		c0.918,0.379,1.959,0.177,2.294-0.873c0.395-1.233,2.031-2.345,0.683-3.842c-1.827-2.028-3.633-4.185-5.145-6.341
		c-2.243-3.201-5.298-6.439-4.372-11.096c0.403-2.028-0.269-3.973-1.313-5.733c-2.336-3.939-4.657-7.89-7.08-11.775
		c-3.237-5.189-5.758-10.693-7.683-16.491c-0.29-0.875,0.213-1.041,0.587-1.64c1.639-2.626,3.489-1.208,5.354-0.674
		c0.477,0.136,1.056,0.281,1.353-0.237c0.292-0.508-0.074-0.973-0.445-1.313c-1.372-1.257-2.91-2.272-4.775-2.563
		c-2.381-0.371-4.783-0.615-7.177-0.906c-0.247-0.03-0.522,0.052-0.746-0.026c-5.141-1.792-10.068,0.667-15.116,0.854
		c-4.494,0.166-8.987,0.089-13.476,0.28c-1.356,0.058-2.231-1.021-3.821-1.217c1.71-0.859,3.454-0.348,4.867-1.676
		c-8-2.271-15.901-3.146-23.962-2.648c-8.397,0.817-16.77,2.163-25.264,1.361c1.921-0.924,3.888-1.366,5.951-1.378
		c4.394-0.023,8.788-0.103,13.182-0.094c1.385,0.003,2.334-0.239,1.979-1.927c-1.056-0.965-2.357-1.192-3.715-1.195
		c-4.656-0.012-9.312-0.005-14.091-0.005c0.079-1.733,1.415-2.521,2.076-3.68c3.585-6.286,7.243-12.529,10.784-18.839
		c4.278-7.628,8.973-14.987,14.252-21.95c1.427-1.882,0.213-1.896-1.253-2.115c2.118-3.313,4.587-6.195,5.54-9.914
		c0.2-0.784,0.991-0.828,1.669-0.766c5.052,0.466,9.986-1.228,15.079-0.717c2.222,0.223,2.915,0.947,2.715,3.149
		c-1.731-0.835-3.334-2.831-5.164-1.109c-1.08,1.017-0.456,2.598,0.388,4.003c0.869-0.579-0.212-1.896,0.799-2.035
		c0.934-0.13,1.286,0.905,1.877,1.44c4.603,4.175,7.553,9.703,11.47,14.335c7.993,9.451,10.913,21.659,18.423,31.272
		c2.912,3.728,6.161,7.225,8.582,11.338c0.285,0.482,0.754,1.463,1.465,0.749c0.748-0.751,2.176-1.635,1.286-2.906
		c-1.399-2.002-1.724-4.468-3.181-6.432c-3.793-5.112-6.536-10.808-9.068-16.622c-1.93-4.43-4.132-8.732-6.801-12.769
		c-0.623-0.941-1.071-1.923-2.865-1.748c-1.45,0.142-2.629-1.929-2.673-3.366c-0.111-3.646-2.203-6.178-4.141-8.879
		c-2.034-2.835-4.614-5.262-6.217-8.425c-0.656-1.297-0.947-2.066,1.056-2.091c1.746-0.021,3.687,0.493,5.146,0.087
		c2.424-0.676,3.629,0.242,5.015,1.774c0.65,0.719,1.683,0.815,2.521,0.187c1.01-0.759,0.796-1.795,0.248-2.691
		c-1.519-2.485-3.081-4.945-4.678-7.382c-2.607-3.978-4.953-8.078-6.645-12.551c-0.566-1.497-1.095-3.217-3.076-3.641
		c-0.255-0.054-0.503-0.438-0.636-0.724c-2.125-4.576-5.735-8.165-8.275-12.467c-0.722-1.222-1.599-2.383-3.287-2.297
		c-0.463,0.303-0.692,0.613-0.79,0.926c0.212,0.724,0.425,1.441,0.847,2.143c4.431,5.858,8.14,12.155,11.433,18.707
		c0.079,0.157,0.216,0.315,0.154,0.506c-0.004-0.023,0.008-0.037-0.007-0.068c-3.179-6.589-6.921-12.853-11.289-18.711
		c-0.107-0.144-0.203-0.288-0.291-0.434c-0.036-0.048-0.07-0.097-0.106-0.145c-0.496-0.653-0.949-1.332-0.74-1.998
		c-0.094-0.32-0.188-0.642-0.298-0.963c-1.768,0.533-3.546-0.169-5.301,0.044c-0.756,0.091-0.988,0.858-0.853,1.58
		c0.76,4.039-1.111,7.391-3.109,10.521c-5.063,7.932-10.384,15.696-15.554,23.56c-0.713,1.083-1.464,1.522-2.681,0.998
		c-0.152-0.065-0.316-0.126-0.479-0.139c-1.45-0.109-3.469-1.57-4.127,0.606c-0.722,2.388,1.713,2.021,3.091,2.44
		c0.477,0.145,1.107,0.259,1.039,0.873c-0.387,3.476,2.396,1.794,3.008,1.386c3.592-2.393,7.44-0.644,11.512-1.396
		c-2.216,4.451-4.925,8.025-7.738,11.448c-2.714,3.3-5.072,6.821-7.327,10.403c-1.957,3.109-3.913,6.203-6.305,8.984
		c-3.439,3.999-5.532,8.795-7.307,13.582c-2.447,6.605-4.915,13.154-8.403,19.285c-0.494,0.868-0.61,1.719,0.027,2.565
		c0.606,0.807,1.311,0.905,2.367,0.846c3.202-0.184,6.422-0.066,10.27-0.066c-3.129,2.21-6.305,3.447-8.738,6.782
		c3.216-1.797,5.852-3.269,8.818-4.926c-0.137,1.762-0.778,3.045-1.365,4.343c-3.869,8.569-7.895,17.065-12.376,25.332
		c-2.139,3.944-4.784,7.595-6.636,11.725c-0.93,2.072-1.867,4.054-1.865,6.366c0.002,3.355-1.519,6.398-1.996,9.654
		C341.826,181.897,341.86,182.66,341.925,183.399z M416.647,36.787c-0.005,0.007-0.004,0.014-0.01,0.021
		c0.097,0.313-0.422-0.037-0.091,0.001C416.598,36.815,416.619,36.799,416.647,36.787z M389.892,49.998
		c-1.233,3.176-3.576,1.688-5.582,1.823c7.097-10.139,13.915-20.213,18.563-32.065c7.798,10.118,12.351,21.893,20.038,32.221
		c-5.45-0.862-10.664-0.203-15.846-0.896c-4.859-0.649-9.741-1.13-14.617-1.645C391.546,49.341,390.205,49.192,389.892,49.998z
		 M391.728,121.579c-6.468,1.312-12.831,0.274-19.03,1.393c-0.44,0.079-1.127,0.154-1.175-0.521
		c-0.063-0.904,0.748-0.704,1.268-0.739C379.002,121.295,385.216,120.833,391.728,121.579z M395.621,179.174
		c3.398-0.828,6.682-2.282,10.292-0.557c1.296,0.619,3.1,0.152,4.669,0.231c1.045,0.054,2.125-0.237,3.13,0.581
		C407.677,180.356,401.653,178.996,395.621,179.174z M350.671,176.282c10.618-13.305,18.956-28.058,26.37-43.375
		c-1.205,0.14-1.572,1.002-2.048,1.73c-4.306,6.603-8.596,13.216-12.892,19.827c-0.868,0.026-1.003-0.361-0.595-1.055
		c4.291-7.809,6.621-16.44,10.134-24.582c0.927-2.146,1.778-2.691,3.602-2.843c1.409-0.117,2.824-0.22,4.237-0.234
		c8.247-0.086,16.465-0.83,24.7-1.109c9.564-0.325,19.145-0.534,28.703,0.358c1.11,0.104,2.097,0.399,2.136,1.622
		c0.066,2.068,1.178,3.588,2.298,5.15c3.216,4.483,5.888,9.265,7.98,14.379c0.915,2.236,1.304,4.638,2.412,6.817
		c2.643,5.197,4.853,10.591,7.112,15.964c1.463,3.479,2.97,6.992,5.92,10.002c-1.127,0-2.012,0.019-2.895-0.003
		c-7.322-0.177-14.647-0.555-21.968-0.482c-5.978,0.059-11.73-0.7-17.473-2.382c-6.157-1.804-12.44-2.804-18.872-0.934
		c-2.052,0.597-4.272,0.655-6.427,0.848c-8.46,0.758-16.94,1.117-25.423,1.529C361.899,177.792,356.254,178.14,350.671,176.282z"/>
</g>
<path fill-rule="evenodd" clip-rule="evenodd" fill="#41A960" d="M499.51,185.687c-0.03,0.806,0.213,1.5,0.95,1.901
	c0.8,0.435,1.626,0.131,1.988-0.516c1.667-2.975,4.554-2.619,7.206-2.66c5.739-0.089,11.562,0.472,17.145-1.103
	c6.534-1.842,13.136-1.037,19.973-1.41c-0.631,1.559-0.912,2.869-1.871,4.007c-1.437,1.706-0.826,3.788-0.613,5.748
	c0.229,2.11,0.792,4.203-0.589,6.203c-0.624,0.902,0.525,1.746,0.427,2.801c-0.24,2.565-0.805,5.362-0.052,7.682
	c0.684,2.107-3.538,2.424-1.032,4.55c1.642,1.393,0.477,3.451,0.808,5.177c0.094,0.486,0.017,1.004,0.104,1.492
	c0.168,0.947,0.52,1.844,1.65,1.89c1.326,0.053,1.148-1.068,1.43-1.919c1.303-3.951,1.759-7.992,1.519-12.129
	c1.054-2.032,0.432-4.452,1.495-6.482c3.191-2.211,2.693-5.296,1.752-8.301c-0.561-1.791-0.829-3.545-0.805-5.389
	c0.016-1.206,0.38-2.517-1.253-3.162c-0.33-0.131-0.536-1.04-0.485-1.56c0.084-0.86,0.901-0.531,1.405-0.532
	c7.583-0.018,15.186-0.347,22.745,0.079c11.213,0.632,22.422,1.195,33.651,1.215c3.806,0.007,7.52-1.226,11.374-0.917
	c1.293,0.104,2.334-0.67,2.23-2.118c-0.172-2.396,1.266-2.77,3.125-2.764c3.328,0.01,6.662-0.17,9.926,0.8
	c0.855,0.255,1.818,0.191,2.731,0.194c0.964,0.003,2.284,0.269,2.416-1.091c0.144-1.483-1.167-1.914-2.355-2.031
	c-3.305-0.327-6.522-1.435-9.902-1.101c-0.563,0.056-1.109,0.026-1.59-0.481c-4.231-4.477-8.195-9.445-9.333-15.405
	c-0.799-4.185-3.607-6.821-5.025-10.392c-1.444-3.639-3.563-6.974-5.891-10.133c-3.081-4.179-5.491-8.73-7.749-13.384
	c-0.825-1.7-0.667-2.463,1.428-2.056c5.874,1.143,11.753,2.26,17.629,3.395c0.99,0.19,2.071,0.535,2.662-0.611
	c0.5-0.969-0.053-1.906-0.809-2.403c-6.639-4.364-8.849-11.698-12.182-18.229c-3.907-7.656-8.119-15.147-13.069-22.139
	c-1.529-2.16-2.93-4.28-3.992-6.658c-0.598-1.337-1.786-2.601-0.212-4.201c0.583-0.593-0.177-1.553-0.673-2.232
	c-2.223-3.04-5.138-5.43-7.686-8.165c-0.277-0.298-0.553-0.599-1.007-1.091c1.721-0.337,3.735,0.986,4.695-1.215
	c0.014-0.03,0.302,0.012,0.424,0.083c0.988,0.577,2.224,1.105,2.897-0.019c0.731-1.222,1.053-2.772,0.864-4.256
	c-0.721-5.665-4.388-9.964-6.972-14.762c-0.439-0.815-1.3-0.974-1.824-0.195c-0.689,1.023-2.492,1.928-0.856,3.523
	c1.651,1.61,2.621,3.621,3.531,5.688c1.069,2.428-0.399,4.572-3.193,4.532c-3.332-0.048-6.669-0.051-9.993-0.259
	c-6.411-0.401-12.796,1.088-19.206,0.188c-2.307-0.324-4.607-0.694-6.919-0.977c-1.088-0.133-1.225-0.534-0.734-1.457
	c3.909-7.355,7.688-14.787,12.121-21.844c3.278-5.218,6.72-10.329,9.51-16.444c3.336,6.55,7.964,11.802,12.021,17.757
	c0.306-0.573,0.464-0.736,0.43-0.825c-2.16-5.575-3.552-11.542-7.768-16.103c-3.49-3.776-3.607-4.336-0.955-8.863
	c0.294-0.503,0.595-1.008,0.826-1.54c0.414-0.953,1.781-2.125,1.08-2.79c-1.102-1.046-1.644,1.192-2.47,1.201
	c-4.538,0.047-4.912,3.962-6.18,6.729c-6.825,14.895-15.646,28.632-24.233,42.511c-1.666,2.694-2.988,5.58-4.177,8.518
	c-0.431,1.066-0.879,2.161-0.464,3.349c0.7,0.118,0.954-0.409,1.144-0.818c0.732-1.571,1.677-2.904,3.605-2.842
	c4.448,0.142,8.77-1.737,13.604-0.801c-3.118,3.999-7.138,6.94-9.578,11.228c-0.246-1.982,1.256-2.985,2.103-4.339
	c0.249-0.398,0.717-0.846,0.293-1.332c-0.457-0.524-0.931-0.05-1.309,0.204c-1.327,0.893-2.403,2.015-3.234,3.408
	c-2.642,4.433-5.049,9.008-7.686,13.427c-3.407,5.709-7.433,11.052-11.258,16.507c-1.54,2.197-2.647,4.623-3.974,6.932
	c-0.254,0.44-0.461,0.898-0.056,1.413c1.442-0.521,1.731-2.2,3.114-3.05c-3.862,9.021-11.16,16.679-9.884,27.634
	c1.907-0.875,1.725-2.683,2.407-3.965c0.32-0.602,0.167-1.611,1.312-1.48c5.07,0.582,10.119-0.148,15.169-0.41
	c0.234,1.153-0.333,1.935-0.645,2.764c-3.16,8.397-7.938,15.926-12.707,23.449c-5.171,8.159-8.956,16.902-11.342,26.254
	c-0.285,1.118-0.426,2.284-0.523,3.438c-0.106,1.241-0.048,2.404-1.51,3.083C499.793,183.665,499.546,184.73,499.51,185.687z
	 M542.332,54.794c-1.456,0.905-3.021,0.351-4.412,0.905C538.745,53.699,539.147,53.613,542.332,54.794z M513.572,120.608
	c0.975,0.028,1.948,0.152,2.921,0.234c-0.904,0.435-1.646,0.707-2.092,1.699c-0.288,0.643-1.191,0.415-1.811,0.328
	c-0.603-0.085-0.351-0.589-0.254-0.967C512.507,121.238,512.741,120.585,513.572,120.608z M606.954,178.253
	c2.917-0.961,5.47-0.875,8.017-0.837c0.729,0.012,1.288,0.254,1.463,1.041c0.154,0.696-0.277,0.887-0.826,0.865
	C612.863,179.212,610.03,179.842,606.954,178.253z M504.792,179.791c0.837-4.602,2.946-8.766,4.538-13.094
	c3.028-8.232,8.256-15.192,13.685-21.953c4.754-5.921,8.538-12.301,10.512-19.671c0.303-1.129,0.783-1.685,2.039-1.661
	c4.827,0.091,9.666-0.302,14.478,0.317c7.938,1.022,15.896,1.69,23.905,1.647c1.206-0.007,2.46,0.104,3.96-1.577
	c-20.592-7.041-41.521-5.277-62.477-6.031c0.958-1.7,1.813-3.113,2.571-4.575c8.988-17.339,20.116-33.342,30.753-49.662
	c2.918-4.478,6.146-6.441,11.5-5.758c4.065,0.52,8.231-0.979,12.39,0.19c1.646,0.462,2.814,1.021,3.464,2.729
	c1.014,2.665,2.401,5.283,4.605,7.049c2.742,2.198,4.349,4.97,5.472,8.127c1.057,2.968,3.389,5.085,4.938,7.729
	c2.687,4.582,4.77,9.409,6.756,14.32c1.367,3.381,3.319,6.524,4.993,9.783c0.336,0.654,0.771,1.269,0.697,2.093
	c-0.313,3.431,1.391,6.072,3.454,8.544c0.931,1.115,1.942,2.162,3.189,3.541c-0.892-0.09-1.299-0.139-1.707-0.17
	c-3.107-0.241-5.731-1.943-8.611-2.82c-3.405-1.037-7.026-1.34-10.491-2.213c-3.539-0.893-6.947,1.334-10.481,0.174
	c-0.954-0.313-2.099,0-2.292,1.303c-0.168,1.131,0.587,1.617,1.605,1.834c0.39,0.083,0.768,0.289,1.11,0.503
	c4.384,2.747,9.136,2.379,14.006,2.048c0.791,3.97,3.545,9.491,5.863,13.643c2.639,4.723,5.415,9.366,8.012,14.112
	c0.174,0.319,0.668,0.682,0.165,1.044c-1.812,1.302-0.775,2.771-0.059,3.954c2.906,4.796,4.546,10.187,7.215,15.089
	c0.429,0.787,0.653,1.703,0.857,2.587c0.173,0.745-0.075,1.354-1.009,1.282c-3.534-0.272-6.938,0.844-10.421,0.979
	c-6.441,0.248-12.865-0.112-19.197,1.954c-5.565,1.816-11.492,1.668-17.327,1.585c-20.575-0.291-41.127,0.036-61.599,2.375
	C504.412,181.305,504.61,180.794,504.792,179.791z M530.739,123.844c0.476-0.09,0.822,0.11,0.715,0.633
	c-0.127,0.619-0.268,1.303-1.079,1.402c-0.428,0.053-0.804-0.041-0.771-0.62C529.853,124.687,529.968,123.99,530.739,123.844z"/>
<path fill-rule="evenodd" clip-rule="evenodd" fill="#43A960" d="M273.4,160.003c0.438-2.161-0.543-3.499-2.668-4.288
	c-3.733-1.386-7.438-2.912-11.406-3.405c-2.813-0.35-4.695,1.361-5.079,4.241c-0.279,2.098-0.142,4.238,0.81,6.109
	c2.252,4.428,6.512,5.285,10.918,5.708c3.392,0.326,5.467-1.47,6.822-4.367C273.377,162.76,273.538,161.457,273.4,160.003z"/>
<path fill-rule="evenodd" clip-rule="evenodd" fill="#43A960" d="M219.934,159.834c3.086,0.447,6.231-0.585,9.329-1.872
	c1.48-0.615,2.8-1.466,3.846-2.689c2.655-3.104,1.746-6.459-2.059-7.879c-3.315-1.236-6.705-1.858-10.248-1.697
	c-1.037,0.048-2.423,0.264-1.635-1.623c0.175-0.417,0.136-0.849-0.288-1.084c-0.573-0.318-1.164-0.176-1.623,0.229
	c-1.928,1.699-4.185,2.988-5.925,4.933c-2.011,2.248-2.804,4.725-1.56,7.557c1.187,2.698,3.441,3.959,6.326,4.116
	C217.258,159.887,218.424,159.834,219.934,159.834z"/>
<path fill-rule="evenodd" clip-rule="evenodd" fill="#43A960" d="M230.253,99.19c3.769,0.107,7.281-0.464,10.082-3.36
	c3.306-3.419,2.696-7.094-1.703-8.801c-3.728-1.447-7.651-2.229-11.622-2.723c-0.329-0.041-0.669-0.061-0.998-0.027
	c-1.365,0.135-2.593-1.447-4.032-0.327c-1.586,1.234-2.396,2.972-2.972,4.811c-1.157,3.69,0.22,7.139,3.495,8.979
	C224.924,99.1,227.564,99.273,230.253,99.19z"/>
<path fill-rule="evenodd" clip-rule="evenodd" fill="#42A75F" d="M174.81,184.796c1.357,1.257,2.423,0.216,3.459-0.651
	c0.498-0.417,1.005-0.821,2.11-1.723c-0.36,1.646-0.606,2.595-0.768,3.558c-0.131,0.787,0.008,1.522,0.882,1.844
	c0.752,0.276,1.384-0.072,1.711-0.673c0.529-0.974,1.109-1.286,2.166-0.763c0.405,0.2,1.009,0.169,1.474,0.053
	c6.923-1.739,14.091-1.178,21.091-2.283c3.515-0.556,7.137-0.425,10.708-0.632c0.869-0.051,1.45,0.207,1.68,1.094
	c0.208,0.803,0.579,1.589,0.643,2.4c0.548,7.011,1.452,13.993-0.173,21.034c-0.818,3.544-0.891,7.264-1.231,10.911
	c-0.092,0.983-0.003,2,0.132,2.984c0.118,0.859,0.554,1.66,1.521,1.745c1.039,0.091,1.494-0.758,1.613-1.581
	c0.174-1.191,0.436-1.966,1.909-1.981c1.096-0.012,1.863-0.931,1.953-1.983c0.259-3.065,1.08-5.942,2.276-8.768
	c1.814-4.283,1.464-8.995,2.428-13.467c0.678-3.139,2.094-5.958,2.95-8.992c0.174-0.617,0.487-0.98,1.189-1.06
	c6.878-0.779,13.772-0.599,20.898-0.639c-1.176,2.871-0.988,5.623-0.938,8.351c0.117,6.258-0.018,12.508-1.531,18.605
	c-0.492,1.981,1.137,3.442,0.719,5.389c-0.108,0.509,1.42,0.303,2.077-0.262c0.854-0.733,1.422-1.512,2.943-0.987
	c1.569,0.54,1.979-1.072,2.227-2.332c0.859-4.378,0.649-8.805,0.333-13.198c-0.229-3.163-0.239-6.32-0.324-9.48
	c-0.013-0.479-0.174-1.076,0.308-1.395c1.372-0.906,1.183-1.961,0.535-3.231c-0.936-1.836,0.028-2.391,1.746-2.33
	c4.082,0.145,8.13,0.45,12.13,1.438c1.606,0.396,3.935,1.744,4.483-1.542c0.03-0.182,0.707-0.263,1.087-0.376
	c6.036-1.814,12.157-1.417,18.292-0.708c2.083,0.241,4.164,0.147,6.22-0.244c1.897-0.361,2.286-1.459,1.103-2.999
	c-0.252-0.327-0.531-0.728-0.887-0.864c-3.423-1.32-4.137-3.851-3.937-7.3c0.186-3.205-1.55-6.115-3.784-8.199
	c-7.617-7.107-11.947-16.092-15.444-25.633c-1.293-3.527-2.854-6.93-5.067-9.999c-1.08-1.498-0.778-2.096,1.166-2.06
	c3.414,0.064,6.831-0.047,10.246-0.143c0.903-0.025,1.847-0.133,2.691-0.43c1.683-0.592,1.852-1.379,0.626-2.919
	c-3.422-4.296-6.103-9.021-7.19-14.508c-0.335-1.686-1.37-3.031-2.383-4.348c-3.137-4.079-6.717-7.841-8.885-12.605
	c-0.17-0.372-0.388-0.834-0.714-1.007c-3.521-1.867-0.778-2.267,0.676-2.98c1.277-0.627,2.511-1.329,3.461-2.417
	c2.573-2.944,1.269-7.257-2.565-7.827c-4.967-0.738-9.759-2.79-15.543-1.675c1.309-1.619,2.199-1.687,3.453-1.223
	c2.162,0.801,3.039-0.087,2.57-2.407c-0.87-4.314-1.176-4.876-4.624-8.844c-1.026-1.181-1.998-2.408-3.348-4.041
	c2.911,0.653,5.38,0.171,7.777,0.91c0.844,0.261,1.878,0.339,2.504-0.588c0.604-0.896,0.272-1.849-0.277-2.569
	c-1.532-2.01-2.02-4.111-1.786-6.693c0.318-3.531-2.487-5.917-4.312-8.491c-1.005-1.417-0.056-3.837-2.841-4.335
	c2.857-1.307,4.948-2.716,4.686-5.998c-0.134-1.671-0.671-2.802-2.153-3.621c-3.651-2.016-7.744-2.429-11.692-3.372
	c-0.359-0.086-0.729-0.128-1.065-0.293c3.447,0.021,3.632-0.354,2.079-3.611c-1.016-2.129-2.349-4.021-3.865-5.8
	c-0.318-0.373-0.817-1.023-1.071-0.954c-2.572,0.7-2.513-1.224-3.008-2.768c-0.382-1.189-5.323-3.309-6.991-3.12
	c-2.381,0.27-2.656,2.31-3.103,4.02c-0.373,1.429-0.354,2.96-0.505,4.446c-0.65,6.475-4.794,11.235-8.116,16.375
	c-3.206,4.959-7.522,9.145-10.201,14.482c-1.192,2.376-2.443,4.715-2.805,7.421c-0.108,0.816-0.185,1.906,0.546,1.906
	c3.252,0.002,3.587,4.832,7.152,4.167c0.462-0.086,0.857,0.486,0.494,0.823c-2.533,2.351-1.705,5.934-3.357,8.685
	c-6.116,10.187-10.505,21.389-18.085,30.72c-1.013,6.142-6.545,10.277-7.325,16.518c-0.048,0.382-0.176,0.648-0.546,0.698
	c-1.494,0.203-2.545,1.04-1.864,2.495c0.688,1.474,1.886,2.733,3.914,2.449c1.064-0.148,2.156-0.121,3.235-0.127
	c1.41-0.01,2.654,0.176,3.942,1.098c1.626,1.165,3.732,0.184,5.615,0.406c0.412,0.049,0.827,0.071,1.526,0.13
	c-4.164,4.903-4.992,11.258-8.245,16.456c-5.344,8.54-8.233,18.18-12.014,27.413c-1.407,3.436-3.143,6.597-5.427,9.491
	c-0.529,0.67-1.126,1.189-1.926,1.527c-0.917,0.389-1.831,0.82-2.667,1.357C174.319,180.955,173.81,183.872,174.81,184.796z
	 M273.413,83.453c0.857-1.476-0.308-3.115,1.196-4.006c0.452-0.269,1.128,0.305,1.227,0.951
	C276.077,81.981,275.223,82.82,273.413,83.453z M240.556,11.938c0.068,0.957-0.609,1.67-1.207,1.622
	c-2.367-0.19-3.465,1.623-5.065,3.011c0.072-1.258,0.14-2.249,0.185-3.241c0.186-4.119,1.117-4.652,4.91-3.021
	C240.229,10.674,240.495,11.101,240.556,11.938z M253.879,30.991c-0.142,1.976-1.685,3.615-3.531,3.375
	c-2.125-0.276-4.256-0.523-6.331-1.247c-1.984-0.692-2.202-1.702-1.708-3.579c0.574-2.181,2.116-1.667,3.817-1.732
	c1.49-0.223,3.17,0.43,4.907,0.553C252.647,28.475,254.029,28.902,253.879,30.991z M257.254,33.731
	c-1.871-0.051-0.104-1.722-0.833-2.516c0.815-0.828-0.944-2.648,0.92-2.696c1.261-0.032,3.129,0.534,3.019,2.587
	C260.258,32.984,258.672,33.771,257.254,33.731z M256.439,55.21c-9.652,0.104-19.262-1.272-28.924-0.834
	c-0.499,0.022-1,0.01-1.499-0.017c-0.415-0.021-0.792-0.078-0.93-0.607c-0.651-2.508-1.596-1.47-2.469-0.157
	c-0.709,1.065-1.605,0.593-2.458,0.385c-0.696-0.17-0.488-0.67-0.374-1.189c1.156-5.231,2.674-10.243,6.177-14.54
	c4.836-5.933,9.398-12.087,14.117-18.115c0.681-0.869,0.944-1.828,1.107-3.047c0.835,1.146,1.51,2.185,2.302,3.125
	c0.824,0.979,1.797,1.838,2.451,3.192c-0.645,0.059-1.056,0.068-1.456,0.136c-3.631,0.612-6.826,3.608-6.807,6.929
	c0.016,2.742,1.603,7.589,5.234,8.594c2.556,0.706,5.215,0.934,7.546-0.326c2.293-1.24,4.69-1.309,7.221-1.76
	c-0.301,0.528-0.523,0.88-0.709,1.25c-1.762,3.517-0.998,7.634,1.479,10.5c1.709,1.979,3.016,4.323,3.884,6.931
	C260.165,56.177,258.343,55.189,256.439,55.21z M224.701,60.31c0.358,2.689-1.302,3.936-3.448,5.725
	C222.223,63.534,223.025,61.77,224.701,60.31z M271.438,80.214c-0.104,1.777-0.064,3.838-1.954,4.826
	c-2.668,1.395-8.07-0.232-9.711-2.767c-0.697-1.078-0.553-2.285-0.164-3.361c0.362-1,1.435-0.561,2.216-0.619
	c0.746-0.056,1.499-0.012,2.248-0.015c1.666-0.001,3.338-0.056,4.962,0.431C269.981,78.992,271.532,78.582,271.438,80.214z
	 M281.908,122.391c0.558,0,1.125-0.067,1.671,0.012c2.009,0.291,4.036,1.552,5.752-0.981c0.48-0.709,1.257,0.833,1.828,1.383
	c0.499,0.48,0.085,1.01-0.479,0.994C287.714,123.716,284.729,123.701,281.908,122.391z M266.649,118.107
	c-0.937-0.211-2-0.219-2.597-1.257c-1.978-3.433-5.224-4.658-8.932-5.149c-5.935-0.787-7.586,0.338-8.367,5.07
	c-0.066,0.404-0.324,0.775-0.4,1.18c-0.287,1.528-1.041,2.025-2.632,1.607c-6.118-1.608-12.598-0.96-18.677-3.176
	c-2.599-0.947-5.643-0.677-8.44-0.308c-4.656,0.613-9.316,0.29-13.969,0.5c-1.854,0.084-2.259-0.588-2.084-2.29
	c0.269-2.605,0.735-5.068,2.332-7.263c3.367-4.628,4.969-10.152,7.574-15.161c2.35-4.515,4.61-9.008,6.067-13.912
	c1.104-3.717,3.017-6.987,6.245-9.41c1.447-1.086,2.796-2.445,3.807-3.94c1.864-2.759,3.572-5.518,7.548-5.032
	c0.221,0.026,0.541-0.093,0.689-0.257c1.896-2.099,4.419-1.737,6.728-1.44c3.156,0.405,6.298,0.578,9.46,0.439
	c1.154-0.051,1.463,0.503,1.896,1.45c1.09,2.381,1.253,5.049,3.101,7.242c3.313,3.93,3.166,4.12-0.969,7.293
	c-3.977,3.053-5.444,9.938,1.59,12.667c3.221,1.249,6.579,1.839,10.01,1.842c1.613,0.001,3.09,0.887,2.938,2.035
	c-0.252,1.921,0.861,3.116,1.485,4.504c3.067,6.821,6.076,13.675,9.888,20.144c1.131,1.92,3.697,2.313,4.469,4.853
	C278.945,120.194,272.756,119.486,266.649,118.107z M249.899,117.8c1.384-3.244,6.248-3.949,10.021-1.456
	C256.277,116.326,253.037,115.606,249.899,117.8z M254.84,119.031c1.717-0.242,3.463-0.162,5.166,0.293
	c0.607,0.162,1.401,0.014,1.536,0.925c0.131,0.883-0.099,1.617-0.893,2.144c-1.426,0.943-2.954,1.469-4.564,1.282
	c-0.449,0-0.78,0.015-1.11-0.002c-1.406-0.071-3.037,0.056-3.108-1.963C251.799,119.774,253.332,119.244,254.84,119.031z
	 M229.202,187.189c0.168-0.615,0.748-0.986,1.352-0.726c0.665,0.287,0.217,0.854,0.025,1.245c-0.564,1.16-0.96,2.427-2.007,3.446
	C228.421,189.692,228.859,188.44,229.202,187.189z M187.373,181.205c3.868-1.001,7.192-0.907,11.128-0.689
	C194.633,181.402,191.336,181.751,187.373,181.205z M186.107,176.85c2.673-6.854,6.118-12.9,9.529-19.235
	c0.329,0.998-0.032,1.805,0.6,2.432c1.034-0.576,1.335-1.663,1.754-2.622c2.036-4.662,3.579-9.5,5.085-14.353
	c1.795-5.788,2.812-11.837,5.924-17.188c0.835-1.436,1.634-2.323,3.443-2.107c1.563,0.186,3.162,0.028,4.744,0.078
	c4.493,0.142,8.986,0.14,13.48,0.438c3.286,0.219,6.543,0.146,9.864-0.826c3.885-1.138,7.041,1.614,10.419,3.148
	c3.881,1.763,8.087,1.999,11.595-0.682c1.849-1.412,3.353-1.368,5.143-0.746c1.111,0.387,2.183,0.854,3.373,0.757
	c1.321-0.108,1.869,0.616,1.873,1.761c0.011,2.956,1.394,5.445,2.578,8.011c0.417,0.902,1.107,1.819,0.837,2.824
	c-0.888,3.29,1.1,5.437,3.026,7.468c1.548,1.631,2.306,3.6,3.328,5.497c3.486,6.471,4.401,14.156,10.109,19.664
	c2.252,2.173,3.515,5.522,6.155,7.781c-6.856,0.023-13.474,0.66-20.094,0.768c-11.818,0.192-23.648,0.059-35.464-0.27
	c-7.634-0.211-15.232-1.348-22.897-1.155c-0.646,0.017-1.307-0.232-1.95-0.396c-4.949-1.258-9.972-1.885-15.081-1.838
	C197.772,176.111,192.054,175.83,186.107,176.85z"/>
</svg>
