<?xml version="1.0" encoding="utf-8"?>
<!-- Generator: Adobe Illustrator 16.0.0, SVG Export Plug-In . SVG Version: 6.00 Build 0)  -->
<!DOCTYPE svg PUBLIC "-//W3C//DTD SVG 1.1//EN" "http://www.w3.org/Graphics/SVG/1.1/DTD/svg11.dtd">
<svg version="1.1" id="Слой_1" xmlns="http://www.w3.org/2000/svg" xmlns:xlink="http://www.w3.org/1999/xlink" x="0px" y="0px"
	 width="476px" height="303px" viewBox="0 0 476 303" enable-background="new 0 0 476 303" xml:space="preserve">
<g>
	<path fill="#37A2DC" d="M446.413,296.731c-3.292-2.135,2.313,6.831-4.742,3.077c-14.641-7.782-28.632-16.517-42.052-25.996
		c-14.597-10.312-30.528-18.639-44.303-30.222c-3.035-2.55-4.841-4.991-3.022-7.486c2.192-3.01,4.315,0.597,6.402,1.924
		c21.163,13.461,40.531,29.661,62.688,41.525c7.727,4.136,14.063,10.322,22.201,13.681
		C445.008,293.816,446.473,294.759,446.413,296.731z"/>
	<path fill="#37A2DC" d="M83.355,244.837c1.875,1.17,4.669,2.278,6.573,4.244c3.524,3.642,6.402,2.408,8.46-0.936
		c4.353-7.071,11.144-12.366,14.461-20.229c0.455-1.08,1.457-5.271,4.96-2.533c2.495,1.949,3.003,3.882,0.978,6.563
		c-5.316,7.042-10.658,14.072-15.662,21.335c-4.06,5.889-8.74,6.716-14.168,2.396c-4.186-3.331-6.003-1.997-8.414,2.316
		c-7.924,14.19-16.358,28.1-24.665,42.074c-0.778,1.312-2.727,3.344-3.56,2.116c-1.045-1.54-3.746-3.099-1.947-6.076
		c3.597-5.951,6.494-12.35,10.355-18.113c6.216-9.279,11.823-18.893,17.23-28.638C79.082,247.331,79.516,244.718,83.355,244.837z"/>
	<path fill="#37A2DC" d="M381.657,52.508c3.934-11.267,11.249-19.887,16.726-29.537c2.774-4.89,5.559-9.753,8.025-14.804
		c1.229-2.523,3.279-4.253,6.02-3.068c3.305,1.424,1.201,3.814,0.379,5.899c-4.309,10.922-11.844,20.012-17.336,30.274
		c-2.586,4.83-5.176,9.604-7.388,14.632c-1.721,3.917-4.658,7.302-8.919,2.309c-4.993-5.851-8.701-2.899-11.198,1.917
		c-3.022,5.831-7.235,10.777-10.731,16.238c-0.766,1.199-1.218,5.017-4.386,2.077c-2.044-1.897-3.505-3.082-0.964-6.374
		c5.519-7.152,10.043-15.063,15.207-22.5c3.013-4.339,6.5-7.186,10.614-0.808C378.541,50.058,379.988,50.958,381.657,52.508z"/>
	<path fill="#37A2DC" d="M416.31,155.278c-16.596-1.026-30.01,3.173-43.76,2.949c-3.18-0.052-7.961,1.354-7.778-3.978
		c0.169-4.973,4.26-3.262,7.712-3.543c18.261-1.487,36.602-1.435,54.852-3.443c14.568-1.604,29.219-2.433,43.69-4.956
		c2.526-0.44,3.941,1.211,4.262,3.666c0.333,2.55-0.594,4.115-3.424,4.14c-12.187,0.108-24.21,1.996-36.283,3.333
		C428.248,154.258,420.979,155.963,416.31,155.278z"/>
	<path fill="#37A2DC" d="M54.919,145.444c18.135,0,33.099-0.011,48.061,0.014c1.859,0.003,3.888-0.232,5.532,0.416
		c1.739,0.686,2.808,2.573,2.098,4.585c-0.474,1.341-1.138,2.207-3.356,2.115c-12.221-0.509-24.624-1.849-36.657-0.387
		c-15.138,1.839-29.981-0.321-44.948-0.412c-6.635-0.041-12.938,2.667-19.653,1.754c-2.684-0.364-5.832-0.039-5.989-3.547
		c-0.165-3.719,2.539-3.088,5.549-3.506C23.062,144.045,40.604,146.456,54.919,145.444z"/>
	<path fill="#37A2DC" d="M131.354,66.115c-2.259,2.536-3.416,5.333-8.01,1.695c-21.04-16.664-42.578-32.703-63.938-48.966
		c-5.363-4.081-10.759-8.149-16.924-10.958c-2.642-1.206-4.451-2.896-2.659-5.444c1.66-2.359,2.819-3.673,7.144-0.811
		c18.328,12.134,34.542,26.922,52.315,39.705C110.241,49.216,120.674,57.824,131.354,66.115z"/>
	<path fill="#37A2DC" d="M359.761,194.407c-0.227-1.275,0.546-2.252,1.554-3.229c1.736-1.683,2.716,0.018,4.063,0.648
		c5.983,2.805,9.58,8.29,14.132,12.645c4.007,3.833,6.897,2.896,9.032-1.181c3.088-5.905,6.157-5.492,11.126-1.901
		c6.025,4.353,12.729,7.816,19.332,11.304c3.531,1.864,4.853,4.463,2.938,7.639c-2.535,4.203-4.463-0.595-6.126-1.392
		c-5.624-2.695-11.311-5.685-16.072-9.642c-4.826-4.012-7.249-2.91-8.913,2.248c-2.429,7.531-5.376,7.231-10.563,1.904
		c-5.427-5.575-11.865-10.168-17.883-15.169C361.173,197.278,359.727,196.487,359.761,194.407z"/>
	<path fill="#37A2DC" d="M118.689,109.964c0.446,2.539-2.846,1.371-3.409,3.614c-0.575,2.287-1.952-0.091-2.569-0.69
		c-5.744-5.59-11.882-10.887-16.873-17.093c-2.913-3.619-3.886-4.134-6.047,0.048c-2.957,5.723-5.878,6.385-11.936,2.304
		c-6.132-4.129-11.661-9.471-18.866-12.11c-2.884-1.057-4.143-3.538-1.983-6.324c1.769-2.282,3.803-2.09,6.152-0.182
		c4.239,3.44,9.145,6.131,13.089,9.856c5.676,5.358,9.993,3.438,12.957-2.176c1.789-3.389,2.917-2.673,5.093-1.104
		c8.909,6.43,15.632,15.138,23.651,22.492C118.308,108.931,118.449,109.5,118.689,109.964z"/>
	<path fill="#37A2DC" d="M406.593,103.822c1.896,0.817,2.479,2.396,2.916,4.301c0.766,3.329-1.654,4.283-3.798,4.929
		c-13.275,3.998-26.699,7.529-39.863,11.855c-3.857,1.268-4.621-1.153-5.754-2.966c-0.914-1.456-0.807-3.152,2.063-3.839
		c14.654-3.503,29.67-5.994,42.961-13.763C405.545,104.088,406.069,104,406.593,103.822z"/>
	<path fill="#37A2DC" d="M67.377,196.724c-2.923,0.882-5.739-0.662-5.86-3.771c-0.111-2.876,3.295-2.204,5.521-2.713
		c13.332-3.05,26.618-6.293,39.889-9.596c2.247-0.557,4.478-1.771,5.32,1.534c0.62,2.438-0.673,4.255-2.984,4.854
		c-12.709,3.301-25.445,6.491-38.188,9.659C70.069,196.94,68.945,196.724,67.377,196.724z"/>
</g>
</svg>
