<?xml version="1.0" encoding="utf-8"?>
<!-- Generator: Adobe Illustrator 16.0.0, SVG Export Plug-In . SVG Version: 6.00 Build 0)  -->
<!DOCTYPE svg PUBLIC "-//W3C//DTD SVG 1.1//EN" "http://www.w3.org/Graphics/SVG/1.1/DTD/svg11.dtd">
<svg version="1.1" id="Слой_1" xmlns="http://www.w3.org/2000/svg" xmlns:xlink="http://www.w3.org/1999/xlink" x="0px" y="0px"
	 width="639px" height="227px" viewBox="0 0 639 227" enable-background="new 0 0 639 227" xml:space="preserve">
<path fill-rule="evenodd" clip-rule="evenodd" fill="#41A960" d="M64.945,217.271c0.588,2.998-1.961,5.04-2.115,7.673
	c-0.039,0.662-0.76,1.052-1.499,1.095c-0.945,0.054-1.595-0.395-1.981-1.225c-0.471-1.014-0.444-2.109-0.439-3.189
	c0.037-8.323,0.087-16.646,0.131-24.969c0.022-4.386,2.29-8.21,3.106-12.399c0.134-0.686,0.287-1.621,1.346-1.451
	c0.921,0.148,1.072,0.999,1.132,1.734c0.264,3.23,0.586,6.463,0.68,9.699c0.232,8.09,1.571,16.033,2.963,23.975
	c0.071,0.409,0.175,0.817,0.202,1.23c0.037,0.548,0.349,1.264-0.333,1.552c-0.678,0.286-1.058-0.412-1.369-0.838
	C66.098,219.242,65.546,218.239,64.945,217.271z"/>
<path fill-rule="evenodd" clip-rule="evenodd" fill="#C5E2CE" d="M234.909,14.37c0.288,1.569-0.113,2.879-1.186,4.117
	c-4.503,5.204-7.204,11.546-10.807,17.32c-0.374,0.6-0.564,1.35-1.646,1.923c2.377-4.835,4.277-9.494,7.271-13.604
	c1.852-2.543,3.566-5.186,5.422-7.727c0.589-0.807,0.338-1.36-0.142-1.993C234.184,14.396,234.547,14.383,234.909,14.37z"/>
<path fill-rule="evenodd" clip-rule="evenodd" fill="#42A75F" d="M638.488,180.416c-3.01-3.995-4.1-8.906-6.479-13.193
	c-0.285-0.515-0.527-1.023-0.145-1.63c0.684-1.085,0.177-2.071-0.311-3.061c-4.83-9.81-10.693-19.002-16.809-28.04
	c-2.079-3.074-4.234-6.096-6.533-9.396c0.795-0.107,1.197-0.251,1.572-0.2c5.181,0.706,10.417,1.166,15.386,2.939
	c1.047,0.374,1.927,0.498,2.766-0.276c0.798-0.737,0.876-1.786,0.285-2.505c-1.997-2.429-2.764-5.482-4.355-8.12
	c-5.597-9.27-11.069-18.609-15.957-28.288c-2.667-5.282-5.8-10.368-10.241-14.379c-1.8-1.625-2.94-3.451-3.995-5.559
	c-1.59-3.175-2.875-6.614-5.788-8.945c-0.684-0.547-1.784-1.553-2.322-0.597c-0.706,1.253-3.535,0.737-2.575,3.18
	c5.584,6.45,10.341,13.375,13.376,21.456c3.382,9.002,8.442,17.156,13.599,25.225c0.882,1.38,1.781,3.143,4.09,2.543
	c0.646-0.168,0.889,0.64,1.218,1.089c2.129,2.904,3.661,6.117,4.99,9.623c-2.033,0.254-3.877-0.299-5.686-0.666
	c-10.625-2.163-21.438-2.709-32.188-3.75c-3.061-0.297-6.333-0.749-9.165,1.364c-0.445,0.332-1.293,0.146-1.956,0.16
	c-2.746,0.059-5.496,0.028-8.236,0.187c-1.164,0.066-1.905,0.228-2.36-1.286c-0.415-1.384-1.935-1.313-3.233-1.095
	c-3.348,0.565-6.698,1.117-10.308,1.718c0.384-1.149,1.204-2.156,0.362-3.261c-0.853-1.117-2.056-0.931-3.203-0.934
	c-4.326-0.013-8.651-0.005-13.108-0.005c-0.015-1.289,0.95-1.957,1.517-2.785c0.755-1.101,1.571-2.11,1.8-3.506
	c0.116-0.708,0.443-1.529,0.951-2.004c5.214-4.875,6.357-11.944,9.705-17.817c4.516-7.924,8.21-16.396,15.048-22.788
	c0.746-1.366,2.091-2.117,3.203-3.104c0.686-0.608,1.65-1.132,1.773-2.03c0.203-1.487,1.072-1.572,2.251-1.647
	c10.146-0.646,20.297-0.657,30.453-0.345c0.415,0.013,0.839,0.025,1.246-0.04c2.026-0.324,2.415-1.341,1.749-3.325
	c-0.566-1.685-1.339-3.381-1.103-5.258c0.294-2.338-0.288-4.493-1.556-6.428c-3.38-5.156-6.262-10.618-9.83-15.661
	c-3.08-4.353-6.303-8.73-7.847-13.865c-0.856-2.851-1.3-5.369-4.92-5.426c-0.206-0.004-0.422-0.232-0.609-0.387
	c-2.435-1.992-2.432-1.993-4.004,0.924c-0.118,0.218-0.27,0.421-0.427,0.613c-2.94,3.598-5.281,7.701-9.185,10.482
	c-1.366,0.973-1.958,2.39-0.339,3.744c0.604,0.506,0.607,0.932,0.197,1.457c-4.503,5.774-6.313,13.036-10.492,18.985
	c-0.82,1.168-0.88,2.184-0.469,3.672c0.67,2.425,1.761,5.135-0.478,7.47c-0.789,0.824-1.432,1.723-0.866,2.889
	c0.577,1.188,1.783,1.082,2.853,1.105c1.754,0.039,3.509,0.011,5.374,0.011c-3.035,5.434-6.05,10.271-9.723,14.729
	c-4.299,5.218-6.891,11.42-9.658,17.584c-3.866,8.611-7.505,17.517-14.458,24.332c-2.821,2.764-3.769,7.308-8.188,8.558
	c-0.553,0.156-0.939,0.753-0.755,1.416c0.23,0.831,0.909,1.231,1.704,1.194c1.66-0.078,3.313-0.296,4.974-0.41
	c5.515-0.382,11.031-0.742,16.783-1.127c-0.252,0.591-0.301,0.838-0.44,1.016c-7.484,9.569-11.569,21.184-18.642,31.001
	c-0.191,0.266-0.372,0.59-0.411,0.905c-0.629,5.06-2.518,9.609-5.138,13.97c-0.895,1.489-1.217,3.606,1.157,4.658
	c0.457,0.202,0.655,0.592,0.438,1.002c-0.842,1.59-1.607,3.626-3.579,3.738c-3.983,0.226-7.997,0.113-11.986-0.087
	c-1.537-0.076-3.051-0.33-3.353,1.521c-0.318,1.949,1.227,2.701,2.831,2.692c8.494-0.046,16.991,0.423,25.481-0.266
	c4.563-0.37,9.311-1.457,13.661-0.609c3.862,0.752,7.402,0.441,11.004-0.149c2.405-0.395,2.739,0.355,2.405,2.321
	c-0.084,0.491-0.082,0.997-0.162,1.488c-1.166,7.185-1.357,14.424-1.205,21.681c0.057,2.657,0.554,3.099,3.248,2.816
	c0.481-0.051,0.832-0.089,0.996,0.359c0.654,1.795,2.598,1.555,3.857,2.398c0.881,0.591,2.006-0.008,2.348-1.146
	c0.209-0.693,0.133-1.482,0.127-2.229c-0.072-8.833-0.154-17.666-0.242-26.499c-0.013-1.228-0.074-2.3,1.739-2.279
	c6.307,0.071,12.614,0.027,18.835,0.027c-1.014,2.106,0.194,4.421,0.356,6.766c0.345,4.967,1.116,9.946-0.969,14.753
	c-0.354,0.815-0.403,1.702,0.306,2.32c0.961,0.84,0.888,1.89,0.895,2.975c0.016,2.416-0.019,4.836,0.129,7.245
	c0.068,1.119,0.673,2.103,1.99,2.214c1.331,0.112,1.927-0.778,2.3-1.875c0.16-0.472,0.282-0.961,0.378-1.451
	c1.991-10.254,3.254-20.591,2.409-31.035c-0.216-2.671,0.679-2.8,2.729-2.719c14.233,0.561,28.476,0.574,42.717,0.515
	c0.915-0.003,1.86,0.058,2.735-0.148C638.527,183.407,639.435,181.672,638.488,180.416z M554.764,55.879
	c3.113-15.007,12.921-26.762,19.009-40.545c4.047,6.295,7.339,12.816,10.953,19.154c3.572,6.263,6.115,13.076,10.572,19.543
	c-9.447-1.954-18.573,0.479-27.68-0.453c-1.566-0.161-3.22-0.116-4.053,1.713c-0.234,0.514-0.8,0.576-1.298,0.58
	C559.705,55.887,557.143,55.879,554.764,55.879z M527.779,122.639c-0.604,0.654-2.336,0.269-3.684,0.369
	c2.371-4.819,3.834-5.358,10.517-3.982C532.266,120.268,529.646,120.613,527.779,122.639z M621.547,155.454
	c-2.551-4.646-5.545-9.071-6.919-14.309C617.481,145.644,620.308,150.167,621.547,155.454z M631.361,180.031
	c-3.076,0.072-6.107-0.244-9.167-0.674c-5.68-0.797-11.444-0.929-17.099-2.018c-2.534-0.487-5.085-0.89-7.625-1.35
	c-2.319-0.42-4.644-0.388-6.969-0.098c-0.908,0.113-1.999,0.223-2.1,1.366c-0.104,1.192,1,1.359,1.875,1.606
	c0.306,0.087,0.63,0.112,0.945,0.166c-8.775,0.254-17.575,0.954-26.414,0.881c-13.983-0.117-27.932,1.029-41.863,2.23
	c-1.607,0.138-3.75,0.907-4.698-0.271c-0.72-0.894,0.824-2.66,1.401-4.019c4.6-10.824,10.038-21.219,16.071-31.308
	c1.085-1.814,1.894-3.729,1.677-5.903c-0.128-1.277,0.514-2.237,1.123-3.228c2.053-3.335,4.239-6.604,4.601-10.676
	c0.093-1.045,0.8-1.608,1.819-1.761c4.263-0.639,8.438-1.257,12.865-0.738c5.763,0.676,11.647,0.552,17.461,0.019
	c2.493-0.229,4.969-0.404,7.473-0.378c5.203,0.055,10.403-1.031,15.613,0.003c1.138,0.226,2.568-0.313,2.987,1.438
	c0.051,0.213,0.548,0.473,0.822,0.455c3.122-0.197,3.713,1.988,4.392,4.347c2.726,9.469,6.271,18.599,11.201,27.181
	c2.942,5.121,6.544,9.855,8.912,15.313c0.432,0.994,1.267,1.739,2.412,2.022c0.723,0.178,1.708-0.641,2.163,0.559
	c0.501,1.32,1.125,2.61,1.462,3.972C632.97,180.247,631.95,180.018,631.361,180.031z"/>
<g>
	<path fill-rule="evenodd" clip-rule="evenodd" fill="#42A75F" d="M258.446,113.387c-0.101,0.209-0.163,0.396-0.208,0.572
		C258.317,113.787,258.389,113.603,258.446,113.387z"/>
	<path fill-rule="evenodd" clip-rule="evenodd" fill="#42A75F" d="M296.938,181.168c-0.478-3.256-1.998-6.299-1.996-9.654
		c0.002-2.313-0.936-4.294-1.865-6.366c-1.852-4.13-4.497-7.78-6.636-11.725c-4.481-8.267-8.507-16.763-12.376-25.332
		c-0.587-1.298-1.229-2.581-1.365-4.343c2.967,1.657,5.603,3.129,8.818,4.926c-2.434-3.335-5.609-4.572-8.738-6.782
		c3.848,0,7.067-0.117,10.27,0.066c1.057,0.06,1.761-0.039,2.367-0.846c0.638-0.847,0.521-1.697,0.027-2.565
		c-3.488-6.131-5.956-12.68-8.403-19.285c-1.774-4.787-3.867-9.583-7.307-13.582c-2.392-2.781-4.348-5.875-6.305-8.984
		c-2.255-3.582-4.613-7.104-7.327-10.403c-2.813-3.423-5.522-6.997-7.738-11.448c4.071,0.752,7.92-0.997,11.512,1.396
		c0.612,0.408,3.395,2.09,3.008-1.386c-0.068-0.614,0.563-0.729,1.039-0.873c1.378-0.419,3.813-0.053,3.091-2.44
		c-0.658-2.177-2.677-0.716-4.127-0.606c-0.163,0.013-0.327,0.073-0.479,0.139c-1.217,0.524-1.968,0.085-2.681-0.998
		c-5.17-7.863-10.491-15.628-15.554-23.56c-1.998-3.13-3.869-6.481-3.109-10.521c0.136-0.722-0.097-1.489-0.853-1.58
		c-1.755-0.213-3.533,0.489-5.301-0.044c-0.11,0.321-0.204,0.643-0.298,0.963c0.209,0.666-0.244,1.345-0.74,1.998
		c-0.036,0.048-0.07,0.097-0.106,0.145c-0.088,0.146-0.184,0.29-0.291,0.434c-4.368,5.858-8.11,12.122-11.289,18.711
		c-0.015,0.031-0.003,0.045-0.007,0.068c-0.062-0.19,0.075-0.349,0.154-0.506c3.293-6.552,7.002-12.849,11.433-18.707
		c0.422-0.701,0.635-1.419,0.847-2.143c-0.098-0.313-0.327-0.623-0.79-0.926c-1.688-0.086-2.565,1.075-3.287,2.297
		c-2.54,4.302-6.15,7.891-8.275,12.467c-0.133,0.286-0.381,0.67-0.636,0.724c-1.981,0.424-2.51,2.144-3.076,3.641
		c-1.691,4.473-4.037,8.573-6.645,12.551c-1.597,2.437-3.159,4.896-4.678,7.382c-0.548,0.896-0.762,1.933,0.248,2.691
		c0.838,0.629,1.87,0.532,2.521-0.187c1.386-1.532,2.591-2.45,5.015-1.774c1.46,0.406,3.4-0.107,5.146-0.087
		c2.003,0.024,1.712,0.794,1.056,2.091c-1.603,3.163-4.183,5.59-6.217,8.425c-1.938,2.701-4.029,5.232-4.141,8.879
		c-0.044,1.438-1.223,3.508-2.673,3.366c-1.794-0.175-2.242,0.807-2.865,1.748c-2.669,4.036-4.871,8.339-6.801,12.769
		c-2.532,5.814-5.275,11.51-9.068,16.622c-1.457,1.964-1.781,4.43-3.181,6.432c-0.89,1.271,0.538,2.155,1.286,2.906
		c0.711,0.714,1.18-0.267,1.465-0.749c2.421-4.113,5.67-7.61,8.582-11.338c7.51-9.613,10.43-21.821,18.423-31.272
		c3.917-4.632,6.867-10.16,11.47-14.335c0.591-0.535,0.943-1.57,1.877-1.44c1.011,0.14-0.07,1.456,0.799,2.035
		c0.844-1.405,1.468-2.986,0.388-4.003c-1.83-1.722-3.433,0.274-5.164,1.109c-0.2-2.202,0.493-2.927,2.715-3.149
		c5.093-0.511,10.027,1.183,15.079,0.717c0.678-0.063,1.469-0.019,1.669,0.766c0.953,3.719,3.422,6.601,5.54,9.914
		c-1.466,0.22-2.68,0.233-1.253,2.115c5.279,6.963,9.974,14.322,14.252,21.95c3.541,6.31,7.199,12.553,10.784,18.839
		c0.661,1.159,1.997,1.946,2.076,3.68c-4.779,0-9.435-0.007-14.091,0.005c-1.357,0.003-2.659,0.23-3.715,1.195
		c-0.355,1.688,0.594,1.93,1.979,1.927c4.394-0.009,8.788,0.07,13.182,0.094c2.063,0.012,4.03,0.454,5.951,1.378
		c-8.494,0.802-16.866-0.544-25.264-1.361c-8.061-0.497-15.962,0.377-23.962,2.648c1.413,1.328,3.157,0.816,4.867,1.676
		c-1.59,0.196-2.465,1.274-3.821,1.217c-4.488-0.191-8.981-0.114-13.476-0.28c-5.048-0.188-9.976-2.646-15.116-0.854
		c-0.224,0.078-0.499-0.004-0.746,0.026c-2.394,0.291-4.796,0.535-7.177,0.906c-1.865,0.291-3.403,1.307-4.775,2.563
		c-0.371,0.341-0.737,0.806-0.445,1.313c0.297,0.519,0.876,0.373,1.353,0.237c1.864-0.534,3.715-1.952,5.354,0.674
		c0.374,0.599,0.877,0.765,0.587,1.64c-1.925,5.798-4.445,11.302-7.683,16.491c-2.423,3.886-4.744,7.836-7.08,11.775
		c-1.045,1.761-1.717,3.705-1.313,5.733c0.926,4.656-2.129,7.895-4.372,11.096c-1.512,2.156-3.317,4.313-5.145,6.341
		c-1.349,1.497,0.288,2.608,0.683,3.842c0.335,1.05,1.376,1.252,2.294,0.873c1.776-0.733,3.609-0.463,5.427-0.538
		c4.553-0.188,9.141,0.498,13.662-0.699c0.962-0.256,2.298-0.577,2.749,1.186c0.213,0.831,1.347,0.894,2.171,0.947
		c1.66,0.11,3.314,0.107,4.978-0.183c5.698-0.99,11.424-1.117,17.174-0.435c1.182,0.14,1.643,0.33,1.443,1.781
		c-0.5,3.63-0.868,7.282-1.686,10.854c-1.782,7.785-1.767,15.703-1.88,23.613c-0.008,0.511-0.17,1.22,0.896,1.459
		c2.006-3.668,2.043-7.769,2.394-11.809c0.094,0.416,0.089,0.832,0.156,1.237c0.262,1.583-0.609,4.125,1.979,4.063
		c2.036-0.049,2.403-2.414,2.468-4.088c0.324-8.317,1.605-16.574,1.564-24.907c-0.007-1.53,0.412-2.005,1.962-1.983
		c4.915,0.069,9.832-0.01,14.747-0.042c4.047-0.026,4.054,0.018,3.529,4.095c-0.657,5.114-1.652,10.196-1.569,15.385
		c0.013,0.775-0.37,1.766,0.819,2.052c1.944,0.469,5.07-1.862,5.113-3.904c0.082-3.865,0.833-7.605,1.854-11.309
		c0.582-2.11,0.991-4.279,0.446-6.41c-0.432-1.693,0.307-2.134,1.688-2.234c2.907-0.211,5.813-0.442,8.725-0.574
		c1.982-0.089,3.992-0.377,5.932,0.393c1.885,0.748,3.865,1.005,5.878,0.983c4.651-0.048,9.313,0.516,13.956-0.397
		c1.492-0.293,3.252-0.535,3.559,1.854c0.078,0.61,0.716,0.918,1.363,0.829c0.645-0.089,1.073-0.519,1.129-1.16
		C297.01,182.66,297.044,181.897,296.938,181.168z M222.323,36.81c0.331-0.038-0.188,0.312-0.091-0.001
		c-0.006-0.008-0.005-0.015-0.01-0.021C222.251,36.799,222.272,36.815,222.323,36.81z M246.422,49.437
		c-4.876,0.515-9.758,0.995-14.617,1.645c-5.182,0.692-10.396,0.033-15.846,0.896c7.688-10.328,12.24-22.103,20.038-32.221
		c4.648,11.853,11.467,21.927,18.563,32.065c-2.006-0.135-4.349,1.353-5.582-1.823C248.665,49.192,247.324,49.341,246.422,49.437z
		 M266.08,121.712c0.52,0.035,1.331-0.165,1.268,0.739c-0.048,0.675-0.734,0.6-1.175,0.521c-6.199-1.118-12.563-0.081-19.03-1.393
		C253.654,120.833,259.868,121.295,266.08,121.712z M225.158,179.43c1.005-0.818,2.085-0.527,3.13-0.581
		c1.569-0.079,3.373,0.388,4.669-0.231c3.61-1.726,6.894-0.271,10.292,0.557C237.217,178.996,231.193,180.356,225.158,179.43z
		 M271.186,177.511c-8.482-0.412-16.963-0.771-25.423-1.529c-2.154-0.192-4.375-0.251-6.427-0.848
		c-6.432-1.87-12.715-0.87-18.872,0.934c-5.742,1.682-11.495,2.44-17.473,2.382c-7.32-0.072-14.646,0.306-21.968,0.482
		c-0.883,0.021-1.768,0.003-2.895,0.003c2.95-3.01,4.457-6.523,5.92-10.002c2.26-5.373,4.47-10.767,7.112-15.964
		c1.108-2.18,1.497-4.581,2.412-6.817c2.093-5.114,4.765-9.896,7.98-14.379c1.12-1.563,2.231-3.082,2.298-5.15
		c0.039-1.223,1.025-1.518,2.136-1.622c9.559-0.893,19.139-0.684,28.703-0.358c8.235,0.279,16.453,1.023,24.7,1.109
		c1.413,0.015,2.828,0.117,4.237,0.234c1.823,0.151,2.675,0.697,3.602,2.843c3.513,8.142,5.843,16.773,10.134,24.582
		c0.408,0.693,0.273,1.081-0.595,1.055c-4.296-6.611-8.586-13.225-12.892-19.827c-0.476-0.729-0.843-1.591-2.048-1.73
		c7.414,15.317,15.752,30.07,26.37,43.375C282.616,178.14,276.971,177.792,271.186,177.511z"/>
</g>
<path fill-rule="evenodd" clip-rule="evenodd" fill="#41A960" d="M138.264,183.288c-1.462-0.679-1.403-1.842-1.51-3.083
	c-0.098-1.153-0.238-2.319-0.523-3.438c-2.386-9.352-6.171-18.095-11.342-26.254c-4.769-7.523-9.547-15.052-12.707-23.449
	c-0.312-0.829-0.879-1.61-0.645-2.764c5.05,0.262,10.099,0.992,15.169,0.41c1.145-0.131,0.991,0.879,1.312,1.48
	c0.683,1.282,0.5,3.09,2.407,3.965c1.276-10.955-6.021-18.613-9.884-27.634c1.383,0.85,1.672,2.529,3.114,3.05
	c0.405-0.515,0.198-0.973-0.056-1.413c-1.326-2.309-2.434-4.734-3.974-6.932c-3.825-5.455-7.851-10.798-11.258-16.507
	c-2.637-4.419-5.044-8.994-7.686-13.427c-0.831-1.394-1.907-2.516-3.234-3.408c-0.378-0.254-0.852-0.729-1.309-0.204
	c-0.424,0.486,0.044,0.934,0.293,1.332c0.847,1.354,2.349,2.356,2.103,4.339c-2.44-4.287-6.46-7.229-9.578-11.228
	c4.835-0.937,9.156,0.942,13.604,0.801c1.929-0.063,2.873,1.271,3.605,2.842c0.189,0.409,0.443,0.937,1.144,0.818
	c0.415-1.188-0.033-2.282-0.464-3.349c-1.188-2.938-2.511-5.823-4.177-8.518C94.082,36.841,85.262,23.104,78.437,8.209
	c-1.268-2.768-1.642-6.683-6.18-6.729c-0.826-0.009-1.368-2.247-2.47-1.201c-0.701,0.665,0.666,1.837,1.08,2.79
	c0.231,0.532,0.532,1.037,0.826,1.54c2.652,4.527,2.535,5.087-0.955,8.863c-4.216,4.561-5.607,10.527-7.768,16.103
	c-0.034,0.089,0.124,0.252,0.43,0.825c4.058-5.955,8.686-11.207,12.021-17.757c2.79,6.115,6.231,11.227,9.51,16.444
	c4.434,7.057,8.212,14.488,12.121,21.844c0.49,0.923,0.354,1.324-0.734,1.457c-2.312,0.282-4.612,0.652-6.919,0.977
	c-6.41,0.9-12.795-0.589-19.206-0.188c-3.324,0.208-6.661,0.211-9.993,0.259c-2.794,0.04-4.263-2.104-3.193-4.532
	c0.91-2.066,1.88-4.077,3.531-5.688c1.636-1.596-0.167-2.5-0.856-3.523c-0.524-0.778-1.385-0.62-1.824,0.195
	c-2.584,4.798-6.251,9.097-6.972,14.762c-0.188,1.483,0.133,3.034,0.864,4.256c0.674,1.124,1.909,0.596,2.897,0.019
	c0.122-0.071,0.41-0.113,0.424-0.083c0.96,2.201,2.975,0.878,4.695,1.215c-0.454,0.492-0.729,0.793-1.007,1.091
	c-2.548,2.735-5.463,5.125-7.686,8.165c-0.496,0.68-1.256,1.64-0.673,2.232c1.574,1.601,0.386,2.864-0.212,4.201
	c-1.063,2.378-2.463,4.498-3.992,6.658c-4.95,6.991-9.162,14.482-13.069,22.139c-3.333,6.53-5.543,13.864-12.182,18.229
	c-0.756,0.497-1.309,1.435-0.809,2.403c0.591,1.146,1.672,0.802,2.662,0.611c5.876-1.135,11.755-2.252,17.629-3.395
	c2.095-0.407,2.253,0.355,1.428,2.056c-2.258,4.653-4.668,9.205-7.749,13.384c-2.328,3.159-4.446,6.494-5.891,10.133
	c-1.418,3.57-4.227,6.207-5.025,10.392c-1.138,5.96-5.102,10.929-9.333,15.405c-0.48,0.508-1.026,0.537-1.59,0.481
	c-3.38-0.334-6.598,0.773-9.902,1.101c-1.188,0.117-2.499,0.548-2.355,2.031c0.132,1.359,1.452,1.094,2.416,1.091
	c0.913-0.003,1.876,0.061,2.731-0.194c3.264-0.97,6.598-0.79,9.926-0.8c1.859-0.006,3.297,0.368,3.125,2.764
	c-0.104,1.448,0.938,2.222,2.23,2.118c3.854-0.309,7.568,0.924,11.374,0.917c11.229-0.02,22.438-0.583,33.651-1.215
	c7.56-0.426,15.162-0.097,22.745-0.079c0.504,0.001,1.321-0.328,1.405,0.532c0.051,0.52-0.155,1.429-0.485,1.56
	c-1.633,0.646-1.269,1.956-1.253,3.162c0.024,1.844-0.244,3.598-0.805,5.389c-0.941,3.005-1.439,6.09,1.752,8.301
	c1.063,2.03,0.441,4.45,1.495,6.482c-0.24,4.137,0.216,8.178,1.519,12.129c0.281,0.851,0.104,1.972,1.43,1.919
	c1.131-0.046,1.482-0.942,1.65-1.89c0.087-0.488,0.01-1.006,0.104-1.492c0.331-1.726-0.834-3.784,0.808-5.177
	c2.506-2.126-1.716-2.442-1.032-4.55c0.753-2.319,0.188-5.116-0.052-7.682c-0.099-1.055,1.051-1.898,0.427-2.801
	c-1.381-2-0.818-4.093-0.589-6.203c0.213-1.96,0.823-4.042-0.613-5.748c-0.959-1.138-1.24-2.448-1.871-4.007
	c6.837,0.373,13.438-0.432,19.973,1.41c5.583,1.574,11.405,1.014,17.145,1.103c2.652,0.041,5.539-0.314,7.206,2.66
	c0.362,0.646,1.188,0.95,1.988,0.516c0.737-0.401,0.98-1.096,0.95-1.901C139.324,184.73,139.077,183.665,138.264,183.288z
	 M100.95,55.699c-1.391-0.555-2.956,0-4.412-0.905C99.723,53.613,100.125,53.699,100.95,55.699z M126.533,121.903
	c0.097,0.378,0.349,0.882-0.254,0.967c-0.619,0.087-1.522,0.314-1.811-0.328c-0.445-0.992-1.188-1.265-2.092-1.699
	c0.973-0.082,1.946-0.206,2.921-0.234C126.129,120.585,126.363,121.238,126.533,121.903z M23.263,179.322
	c-0.549,0.021-0.98-0.169-0.826-0.865c0.175-0.787,0.734-1.029,1.463-1.041c2.547-0.038,5.1-0.124,8.017,0.837
	C28.84,179.842,26.007,179.212,23.263,179.322z M133.016,181.14c-20.472-2.339-41.023-2.666-61.599-2.375
	c-5.835,0.083-11.762,0.231-17.327-1.585c-6.332-2.066-12.756-1.706-19.197-1.954c-3.482-0.135-6.887-1.251-10.421-0.979
	c-0.934,0.071-1.182-0.537-1.009-1.282c0.204-0.884,0.429-1.8,0.857-2.587c2.669-4.902,4.309-10.293,7.215-15.089
	c0.717-1.183,1.753-2.652-0.059-3.954c-0.503-0.362-0.009-0.725,0.165-1.044c2.597-4.746,5.373-9.39,8.012-14.112
	c2.318-4.151,5.072-9.673,5.863-13.643c4.87,0.331,9.622,0.699,14.006-2.048c0.343-0.214,0.721-0.42,1.11-0.503
	c1.019-0.217,1.773-0.703,1.605-1.834c-0.193-1.303-1.338-1.615-2.292-1.303c-3.534,1.16-6.942-1.066-10.481-0.174
	c-3.465,0.873-7.086,1.176-10.491,2.213c-2.88,0.877-5.504,2.579-8.611,2.82c-0.408,0.031-0.815,0.08-1.707,0.17
	c1.247-1.379,2.259-2.426,3.189-3.541c2.063-2.472,3.767-5.113,3.454-8.544c-0.074-0.824,0.361-1.438,0.697-2.093
	c1.674-3.259,3.626-6.402,4.993-9.783c1.986-4.911,4.069-9.738,6.756-14.32c1.55-2.644,3.882-4.761,4.938-7.729
	c1.123-3.157,2.729-5.929,5.472-8.127c2.204-1.766,3.592-4.384,4.605-7.049c0.649-1.707,1.818-2.267,3.464-2.729
	c4.158-1.169,8.324,0.329,12.39-0.19c5.354-0.684,8.582,1.28,11.5,5.758c10.637,16.32,21.765,32.323,30.753,49.662
	c0.759,1.462,1.613,2.875,2.571,4.575c-20.956,0.754-41.885-1.01-62.477,6.031c1.5,1.681,2.754,1.57,3.96,1.577
	c8.009,0.043,15.968-0.625,23.905-1.647c4.812-0.619,9.65-0.227,14.478-0.317c1.256-0.023,1.736,0.532,2.039,1.661
	c1.974,7.37,5.758,13.75,10.512,19.671c5.429,6.761,10.656,13.721,13.685,21.953c1.592,4.328,3.701,8.492,4.538,13.094
	C134.26,180.794,134.458,181.305,133.016,181.14z M109.266,125.259c0.033,0.579-0.343,0.673-0.771,0.62
	c-0.812-0.1-0.952-0.783-1.079-1.402c-0.107-0.522,0.239-0.723,0.715-0.633C108.902,123.99,109.018,124.687,109.266,125.259z"/>
<path fill-rule="evenodd" clip-rule="evenodd" fill="#43A960" d="M365.47,160.003c-0.438-2.161,0.543-3.499,2.668-4.288
	c3.733-1.386,7.438-2.912,11.406-3.405c2.813-0.35,4.695,1.361,5.079,4.241c0.279,2.098,0.142,4.238-0.81,6.109
	c-2.252,4.428-6.512,5.285-10.918,5.708c-3.392,0.326-5.467-1.47-6.822-4.367C365.493,162.76,365.332,161.457,365.47,160.003z"/>
<path fill-rule="evenodd" clip-rule="evenodd" fill="#43A960" d="M418.937,159.834c-3.086,0.447-6.231-0.585-9.329-1.872
	c-1.48-0.615-2.8-1.466-3.846-2.689c-2.655-3.104-1.746-6.459,2.059-7.879c3.315-1.236,6.705-1.858,10.248-1.697
	c1.037,0.048,2.423,0.264,1.635-1.623c-0.175-0.417-0.136-0.849,0.288-1.084c0.573-0.318,1.164-0.176,1.623,0.229
	c1.928,1.699,4.185,2.988,5.925,4.933c2.011,2.248,2.804,4.725,1.56,7.557c-1.187,2.698-3.441,3.959-6.326,4.116
	C421.612,159.887,420.446,159.834,418.937,159.834z"/>
<path fill-rule="evenodd" clip-rule="evenodd" fill="#43A960" d="M408.617,99.19c-3.769,0.107-7.281-0.464-10.082-3.36
	c-3.306-3.419-2.696-7.094,1.703-8.801c3.728-1.447,7.651-2.229,11.622-2.723c0.329-0.041,0.669-0.061,0.998-0.027
	c1.365,0.135,2.593-1.447,4.032-0.327c1.586,1.234,2.396,2.972,2.972,4.811c1.157,3.69-0.22,7.139-3.495,8.979
	C413.946,99.1,411.306,99.273,408.617,99.19z"/>
<path fill-rule="evenodd" clip-rule="evenodd" fill="#42A75F" d="M463.287,180.146c-0.836-0.537-1.75-0.969-2.667-1.357
	c-0.8-0.338-1.396-0.857-1.926-1.527c-2.284-2.895-4.02-6.056-5.427-9.491c-3.78-9.233-6.67-18.873-12.014-27.413
	c-3.253-5.198-4.081-11.553-8.245-16.456c0.699-0.059,1.114-0.081,1.526-0.13c1.883-0.223,3.989,0.759,5.615-0.406
	c1.288-0.922,2.532-1.107,3.942-1.098c1.079,0.006,2.171-0.021,3.235,0.127c2.028,0.284,3.226-0.976,3.914-2.449
	c0.681-1.455-0.37-2.292-1.864-2.495c-0.37-0.05-0.498-0.316-0.546-0.698c-0.78-6.24-6.313-10.376-7.325-16.518
	c-7.58-9.331-11.969-20.533-18.085-30.72c-1.652-2.751-0.824-6.334-3.357-8.685c-0.363-0.337,0.032-0.909,0.494-0.823
	c3.565,0.665,3.9-4.165,7.152-4.167c0.73,0,0.654-1.09,0.546-1.906c-0.361-2.706-1.612-5.045-2.805-7.421
	c-2.679-5.338-6.995-9.523-10.201-14.482c-3.322-5.14-7.466-9.9-8.116-16.375c-0.15-1.486-0.132-3.018-0.505-4.446
	c-0.446-1.71-0.722-3.75-3.103-4.02c-1.668-0.188-6.609,1.931-6.991,3.12c-0.495,1.544-0.436,3.468-3.008,2.768
	c-0.254-0.069-0.753,0.581-1.071,0.954c-1.517,1.778-2.85,3.671-3.865,5.8c-1.553,3.258-1.368,3.632,2.079,3.611
	c-0.336,0.165-0.706,0.207-1.065,0.293c-3.948,0.943-8.041,1.356-11.692,3.372c-1.482,0.819-2.02,1.95-2.153,3.621
	c-0.263,3.282,1.828,4.691,4.686,5.998c-2.785,0.498-1.836,2.918-2.841,4.335c-1.824,2.574-4.63,4.96-4.312,8.491
	c0.233,2.582-0.254,4.684-1.786,6.693c-0.55,0.721-0.882,1.673-0.277,2.569c0.626,0.927,1.66,0.849,2.504,0.588
	c2.397-0.739,4.866-0.257,7.777-0.91c-1.35,1.633-2.321,2.86-3.348,4.041c-3.448,3.968-3.754,4.529-4.624,8.844
	c-0.469,2.32,0.408,3.208,2.57,2.407c1.254-0.464,2.145-0.396,3.453,1.223c-5.784-1.115-10.576,0.937-15.543,1.675
	c-3.834,0.57-5.139,4.883-2.565,7.827c0.95,1.088,2.184,1.79,3.461,2.417c1.454,0.714,4.196,1.113,0.676,2.98
	c-0.326,0.173-0.544,0.635-0.714,1.007c-2.168,4.765-5.748,8.526-8.885,12.605c-1.013,1.316-2.048,2.662-2.383,4.348
	c-1.088,5.487-3.769,10.212-7.19,14.508c-1.226,1.54-1.057,2.327,0.626,2.919c0.845,0.297,1.788,0.404,2.691,0.43
	c3.415,0.096,6.832,0.207,10.246,0.143c1.944-0.036,2.246,0.562,1.166,2.06c-2.213,3.069-3.774,6.472-5.067,9.999
	c-3.497,9.541-7.827,18.525-15.444,25.633c-2.234,2.084-3.97,4.994-3.784,8.199c0.2,3.449-0.514,5.979-3.937,7.3
	c-0.355,0.137-0.635,0.537-0.887,0.864c-1.184,1.54-0.795,2.638,1.103,2.999c2.056,0.392,4.137,0.485,6.22,0.244
	c6.135-0.709,12.256-1.106,18.292,0.708c0.38,0.113,1.057,0.194,1.087,0.376c0.549,3.286,2.877,1.938,4.483,1.542
	c4-0.987,8.048-1.293,12.13-1.438c1.718-0.061,2.682,0.494,1.746,2.33c-0.647,1.271-0.837,2.325,0.535,3.231
	c0.481,0.318,0.32,0.916,0.308,1.395c-0.085,3.16-0.096,6.317-0.324,9.48c-0.316,4.394-0.526,8.82,0.333,13.198
	c0.248,1.26,0.657,2.872,2.227,2.332c1.521-0.524,2.09,0.254,2.943,0.987c0.657,0.564,2.186,0.771,2.077,0.262
	c-0.418-1.946,1.211-3.407,0.719-5.389c-1.514-6.098-1.648-12.348-1.531-18.605c0.051-2.728,0.238-5.479-0.938-8.351
	c7.126,0.04,14.021-0.141,20.898,0.639c0.702,0.079,1.016,0.442,1.189,1.06c0.856,3.034,2.272,5.854,2.95,8.992
	c0.964,4.472,0.613,9.184,2.428,13.467c1.196,2.825,2.018,5.702,2.276,8.768c0.09,1.053,0.857,1.972,1.953,1.983
	c1.474,0.016,1.735,0.79,1.909,1.981c0.119,0.823,0.574,1.672,1.613,1.581c0.968-0.085,1.403-0.886,1.521-1.745
	c0.135-0.984,0.224-2.001,0.132-2.984c-0.341-3.647-0.413-7.367-1.231-10.911c-1.625-7.041-0.721-14.023-0.173-21.034
	c0.063-0.812,0.435-1.598,0.643-2.4c0.229-0.887,0.811-1.145,1.68-1.094c3.571,0.207,7.193,0.076,10.708,0.632
	c7,1.105,14.168,0.544,21.091,2.283c0.465,0.116,1.068,0.147,1.474-0.053c1.057-0.523,1.637-0.211,2.166,0.763
	c0.327,0.601,0.959,0.949,1.711,0.673c0.874-0.321,1.013-1.057,0.882-1.844c-0.161-0.963-0.407-1.911-0.768-3.558
	c1.105,0.901,1.612,1.306,2.11,1.723c1.036,0.867,2.102,1.908,3.459,0.651C465.061,183.872,464.551,180.955,463.287,180.146z
	 M363.034,80.398c0.099-0.646,0.774-1.22,1.227-0.951c1.504,0.891,0.339,2.53,1.196,4.006
	C363.647,82.82,362.793,81.981,363.034,80.398z M399.492,10.308c3.793-1.631,4.725-1.098,4.91,3.021
	c0.045,0.992,0.112,1.983,0.185,3.241c-1.601-1.388-2.698-3.201-5.065-3.011c-0.598,0.048-1.275-0.665-1.207-1.622
	C398.375,11.101,398.641,10.674,399.492,10.308z M387.837,28.36c1.737-0.123,3.417-0.775,4.907-0.553
	c1.701,0.065,3.243-0.448,3.817,1.732c0.494,1.877,0.276,2.887-1.708,3.579c-2.075,0.724-4.206,0.971-6.331,1.247
	c-1.847,0.24-3.39-1.399-3.531-3.375C384.841,28.902,386.223,28.475,387.837,28.36z M378.511,31.106
	c-0.11-2.053,1.758-2.619,3.019-2.587c1.864,0.048,0.104,1.868,0.92,2.696c-0.729,0.794,1.038,2.465-0.833,2.516
	C380.198,33.771,378.612,32.984,378.511,31.106z M376.538,55.658c0.868-2.607,2.175-4.952,3.884-6.931
	c2.477-2.866,3.24-6.983,1.479-10.5c-0.186-0.37-0.408-0.722-0.709-1.25c2.53,0.451,4.928,0.52,7.221,1.76
	c2.331,1.26,4.99,1.032,7.546,0.326c3.632-1.005,5.219-5.852,5.234-8.594c0.02-3.32-3.176-6.316-6.807-6.929
	c-0.4-0.067-0.812-0.077-1.456-0.136c0.654-1.354,1.627-2.213,2.451-3.192c0.792-0.94,1.467-1.979,2.302-3.125
	c0.163,1.219,0.427,2.178,1.107,3.047c4.719,6.028,9.281,12.183,14.117,18.115c3.503,4.297,5.021,9.309,6.177,14.54
	c0.114,0.52,0.322,1.02-0.374,1.189c-0.853,0.208-1.749,0.681-2.458-0.385c-0.873-1.313-1.817-2.351-2.469,0.157
	c-0.138,0.529-0.515,0.587-0.93,0.607c-0.499,0.026-1,0.039-1.499,0.017c-9.662-0.438-19.271,0.938-28.924,0.834
	C380.527,55.189,378.705,56.177,376.538,55.658z M417.617,66.034c-2.146-1.789-3.807-3.035-3.448-5.725
	C415.845,61.77,416.647,63.534,417.617,66.034z M369.836,78.709c1.624-0.486,3.296-0.432,4.962-0.431
	c0.749,0.003,1.502-0.041,2.248,0.015c0.781,0.059,1.854-0.381,2.216,0.619c0.389,1.076,0.533,2.283-0.164,3.361
	c-1.641,2.534-7.043,4.161-9.711,2.767c-1.89-0.988-1.85-3.049-1.954-4.826C367.338,78.582,368.889,78.992,369.836,78.709z
	 M348.19,123.798c-0.564,0.016-0.979-0.514-0.479-0.994c0.571-0.55,1.348-2.092,1.828-1.383c1.716,2.533,3.743,1.272,5.752,0.981
	c0.546-0.079,1.113-0.012,1.671-0.012C354.141,123.701,351.156,123.716,348.19,123.798z M353.461,120.338
	c0.771-2.539,3.338-2.933,4.469-4.853c3.812-6.469,6.82-13.322,9.888-20.144c0.624-1.388,1.737-2.583,1.485-4.504
	c-0.152-1.148,1.324-2.034,2.938-2.035c3.431-0.003,6.789-0.593,10.01-1.842c7.034-2.729,5.566-9.614,1.59-12.667
	c-4.135-3.173-4.282-3.363-0.969-7.293c1.848-2.193,2.011-4.861,3.101-7.242c0.434-0.947,0.742-1.501,1.896-1.45
	c3.162,0.139,6.304-0.034,9.46-0.439c2.309-0.297,4.831-0.658,6.728,1.44c0.148,0.164,0.469,0.283,0.689,0.257
	c3.976-0.485,5.684,2.273,7.548,5.032c1.011,1.495,2.359,2.854,3.807,3.94c3.229,2.423,5.141,5.693,6.245,9.41
	c1.457,4.904,3.718,9.397,6.067,13.912c2.605,5.009,4.207,10.533,7.574,15.161c1.597,2.194,2.063,4.657,2.332,7.263
	c0.175,1.702-0.23,2.374-2.084,2.29c-4.652-0.21-9.313,0.113-13.969-0.5c-2.798-0.369-5.842-0.64-8.44,0.308
	c-6.079,2.216-12.559,1.567-18.677,3.176c-1.591,0.418-2.345-0.079-2.632-1.607c-0.076-0.404-0.334-0.775-0.4-1.18
	c-0.781-4.732-2.433-5.857-8.367-5.07c-3.708,0.491-6.954,1.717-8.932,5.149c-0.597,1.038-1.66,1.046-2.597,1.257
	C366.114,119.486,359.925,120.194,353.461,120.338z M378.949,116.344c3.773-2.493,8.638-1.788,10.021,1.456
	C385.833,115.606,382.593,116.326,378.949,116.344z M387.004,121.71c-0.071,2.019-1.702,1.892-3.108,1.963
	c-0.33,0.017-0.661,0.002-1.11,0.002c-1.61,0.187-3.139-0.339-4.564-1.282c-0.794-0.526-1.023-1.261-0.893-2.144
	c0.135-0.911,0.929-0.763,1.536-0.925c1.703-0.455,3.449-0.535,5.166-0.293C385.538,119.244,387.071,119.774,387.004,121.71z
	 M410.298,191.155c-1.047-1.02-1.442-2.286-2.007-3.446c-0.191-0.392-0.64-0.958,0.025-1.245c0.604-0.261,1.184,0.11,1.352,0.726
	C410.011,188.44,410.449,189.692,410.298,191.155z M440.369,180.516c3.936-0.218,7.26-0.312,11.128,0.689
	C447.534,181.751,444.237,181.402,440.369,180.516z M435.389,176.058c-5.109-0.047-10.132,0.58-15.081,1.838
	c-0.644,0.164-1.304,0.413-1.95,0.396c-7.665-0.192-15.264,0.944-22.897,1.155c-11.815,0.328-23.646,0.462-35.464,0.27
	c-6.62-0.107-13.237-0.744-20.094-0.768c2.641-2.259,3.903-5.608,6.155-7.781c5.708-5.508,6.623-13.193,10.109-19.664
	c1.022-1.897,1.78-3.866,3.328-5.497c1.927-2.031,3.914-4.178,3.026-7.468c-0.271-1.005,0.42-1.922,0.837-2.824
	c1.185-2.565,2.567-5.055,2.578-8.011c0.004-1.145,0.552-1.869,1.873-1.761c1.19,0.098,2.262-0.37,3.373-0.757
	c1.79-0.622,3.294-0.666,5.143,0.746c3.508,2.681,7.714,2.444,11.595,0.682c3.378-1.534,6.534-4.286,10.419-3.148
	c3.321,0.973,6.578,1.045,9.864,0.826c4.494-0.299,8.987-0.297,13.48-0.438c1.582-0.05,3.182,0.107,4.744-0.078
	c1.81-0.216,2.608,0.672,3.443,2.107c3.112,5.352,4.129,11.4,5.924,17.188c1.506,4.853,3.049,9.69,5.085,14.353
	c0.419,0.959,0.72,2.046,1.754,2.622c0.632-0.627,0.271-1.434,0.6-2.432c3.411,6.335,6.856,12.381,9.529,19.235
	C446.816,175.83,441.098,176.111,435.389,176.058z"/>
</svg>
