<?xml version="1.0" encoding="utf-8"?>
<!-- Generator: Adobe Illustrator 16.0.0, SVG Export Plug-In . SVG Version: 6.00 Build 0)  -->
<!DOCTYPE svg PUBLIC "-//W3C//DTD SVG 1.1//EN" "http://www.w3.org/Graphics/SVG/1.1/DTD/svg11.dtd">
<svg version="1.1" id="Снегурочка_1_" xmlns="http://www.w3.org/2000/svg" xmlns:xlink="http://www.w3.org/1999/xlink"
	 x="0px" y="0px" width="267px" height="71px" viewBox="0 0 267 71" enable-background="new 0 0 267 71" xml:space="preserve">
<g id="Снегурочка">
	<g>
		<path fill-rule="evenodd" clip-rule="evenodd" fill="#333333" d="M25.119,58.633c-5.913,4.108-11.611,1.833-17.092-6.828
			C4.549,46.38,2.94,41.19,3.2,36.236s2.278-8.743,6.056-11.368c2.923-2.031,5.988-2.528,9.192-1.492l0.606-2.176
			c-3.652-1.261-7.319-0.613-10.998,1.943c-4.402,3.059-6.77,7.396-7.106,13.011c-0.335,5.616,1.423,11.371,5.276,17.267
			c3.054,4.746,6.277,7.719,9.667,8.918c3.391,1.2,6.843,0.579,10.358-1.864c3.383-2.351,5.899-5.634,7.55-9.849l-1.623-1.283
			C30.527,53.414,28.174,56.51,25.119,58.633z M255.032,68.697c-1.692-0.03-3.054-0.426-4.083-1.186
			c-0.806-0.594-1.039-1.338-0.702-2.232c0.336-0.895,1.302-2.119,2.897-3.675l13.637-13.355l-2.084-1.016
			c-2.248-2.006-3.807-3.33-4.676-3.972c-3.669-2.707-7.475-3.613-11.415-2.718c-3.941,0.896-7.488,3.411-10.639,7.548
			c-0.512,0.685-0.953,1.351-1.33,1.999c-3.815,2.062-6.779,2.538-8.877,1.409c-3.17-1.707-3.33-6.768-0.479-15.183
			c5.386,0.038,10.323-1.665,14.813-5.107l-2.219-1.195c-2.747,2.064-5.853,3.401-9.315,4.013c-3.464,0.61-6.871,0.399-10.222-0.633
			l17.503-22.874l-2.13-0.67l-22.344,29.196c-3.04,1.614-6.178,1.827-9.418,0.596c-3.589-1.365-4.619-4.003-3.089-7.915
			c1.678-4.411,5.51-8.581,11.497-12.51l1.209-1.659c-6.422-2.355-11.079-4.684-13.971-6.981l-0.766,1.506
			c0.135,0.095,0.546,0.423,1.231,0.982c-0.65,2.834-1.849,5.706-3.597,8.614s-3.682,5.18-5.8,6.813l0.127,0.303
			c-2.747,2.436-5.535,3.353-8.367,2.713c-1.327-0.3-2.386-0.97-3.176-2.009c3.809-2.339,6.309-6.142,7.498-11.408
			c1.611-6.771-0.529-10.823-6.421-12.153c-3.979-0.899-7.537-0.124-10.674,2.325c-3.137,2.45-5.245,5.972-6.323,10.566
			c-0.284,1.191-0.444,2.3-0.494,3.333c-2.287,2.813-4.891,4.131-7.82,3.915c-1.396-0.104-2.562-0.63-3.493-1.582
			c3.255-2.807,5.215-7.075,5.878-12.802c0.455-3.456,0.18-6.013-0.828-7.672c-1.007-1.658-2.815-2.584-5.424-2.776
			c-3.532-0.261-7.308,1.124-11.325,4.154l1.16-4.904l-2.203,0.198l-4.325,18.411c-2.154,3.87-5.496,6.792-10.033,8.761
			l2.317-27.603l-2.135,0.342l-1.65,19.641c-1.602,1.777-3.367,3.224-5.3,4.34c-1.934,1.116-3.683,1.732-5.246,1.85
			c-3.219,0.243-4.996-1.156-5.334-4.194c0.041-0.087,0.094-0.167,0.132-0.256l-0.159-0.111c-0.044-0.614-0.04-1.283,0.024-2.02
			l1.499-18.28l-2.15,0.523l-1.45,18.408c-0.059,0.755-0.055,1.454-0.001,2.109c-0.885,1.356-2.041,2.552-3.483,3.578
			c-1.977,1.407-4.279,2.38-6.903,2.919c-4.35,0.893-6.879-0.186-7.587-3.237c-0.006-0.031-0.004-0.061-0.011-0.092
			c0.018-0.06,0.043-0.113,0.061-0.174l-0.085-0.046c-0.235-1.485,0.034-2.834,0.852-4.036c0.876-1.286,2.535-2.918,4.979-4.896
			c0.946-0.799,1.678-1.417,2.196-1.854c0.52-0.438,1.136-1.064,1.853-1.88s1.193-1.642,1.433-2.481
			c0.238-0.838,0.263-1.724,0.07-2.656c-0.644-3.135-3.102-4.264-7.372-3.386c-3.018,0.619-5.653,1.998-7.909,4.136l0.563,1.845
			c2.521-2.233,4.997-3.6,7.428-4.099c2.977-0.611,4.672,0.084,5.083,2.085c0.089,0.432,0.114,0.855,0.078,1.272
			c-0.037,0.416-0.184,0.844-0.439,1.285s-0.476,0.813-0.658,1.117s-0.541,0.693-1.074,1.171s-0.902,0.798-1.105,0.958
			c-0.202,0.16-0.646,0.513-1.333,1.057c-0.687,0.545-1.107,0.879-1.265,1.002c-2.202,1.8-3.756,3.436-4.657,4.907
			c-0.902,1.472-1.177,3.172-0.821,5.1c0.021,0.126,0.053,0.242,0.079,0.363c-1.563,3.513-4.437,5.958-8.638,7.324
			c-6.011,1.953-10.068,0.077-12.177-5.632c4.803-1.141,8.477-3.134,11.021-5.979c2.545-2.847,3.329-5.771,2.352-8.777
			c-1.248-3.842-4.155-5.021-8.721-3.537c-3.423,1.112-5.787,3.385-7.09,6.815c-1.304,3.432-1.269,7.258,0.104,11.48
			c0.56,1.722,1.271,3.171,2.123,4.368c-0.67,3.544-2.008,5.802-4.018,6.764c-0.975,0.466-1.766,0.4-2.376-0.196
			c-0.609-0.597-1.305-2.064-2.084-4.401l-5.379-18.298l-1.814,1.267l3.29,11.063l-14.104,6.746l-3.36-11.429l-1.814,1.267
			l7.492,25.481l1.918-0.917l-3.703-12.595l14.109-6.749l1.698,5.711c0.761,2.517,1.652,4.195,2.677,5.033
			c1.025,0.84,2.278,0.905,3.762,0.195c2.464-1.179,4.133-3.662,5.029-7.413c0.638,0.609,1.329,1.124,2.088,1.515
			c2.502,1.291,5.597,1.336,9.287,0.136c4.318-1.403,7.366-3.786,9.175-7.12c0.551,0.856,1.31,1.528,2.293,1.999
			c1.789,0.857,4.129,0.968,7.021,0.334c2.852-0.627,5.341-1.729,7.467-3.311c1.132-0.841,2.088-1.783,2.892-2.812
			c0.234,0.62,0.539,1.177,0.929,1.658c1.146,1.416,3.032,2.025,5.656,1.827c3.618-0.272,7.19-2.209,10.717-5.809
			c-0.044,0.52-0.112,1.318-0.201,2.396c-0.09,1.079-0.159,1.896-0.206,2.454c-0.272,3.31-1.173,5.875-2.699,7.695
			c-1.528,1.819-3.625,2.87-6.291,3.151c-2.231,0.208-4.438-0.066-6.621-0.824l-0.21,2.002c2.131,0.601,4.373,0.813,6.728,0.636
			c2.951-0.223,5.381-1.209,7.289-2.957c1.909-1.748,3.115-4.166,3.62-7.252c2.862-1.299,5.199-2.699,7.011-4.199
			c0.815-0.675,1.563-1.433,2.262-2.253l-3.466,14.754l2.063,0.138l2.968-12.551c2.221,1.069,4.354,1.679,6.402,1.83
			c3.13,0.23,5.92-0.385,8.369-1.85c1.319,1.262,2.941,1.962,4.868,2.104c3.134,0.231,5.894-0.903,8.294-3.358
			c0.143,0.944,0.409,1.804,0.806,2.577c1.082,2.11,3.066,3.491,5.954,4.144c2.652,0.599,5.232,0.342,7.74-0.774
			c1.141,1.488,2.589,2.431,4.344,2.827c3.707,0.837,7.196-0.363,10.471-3.602l-0.154-0.259c1.885-1.538,3.67-3.658,5.355-6.36
			c1.919-3.079,3.271-6.096,4.052-9.051c2.582,1.538,5.536,2.939,8.864,4.205c-6.026,4.256-9.909,8.557-11.646,12.903
			c-1.995,5.019-0.599,8.438,4.188,10.258c2.884,1.097,5.664,1.243,8.344,0.445l-1.395,1.821l1.872,1.008l3.844-5.022
			c0.116-0.083,0.234-0.148,0.35-0.235l-0.06-0.144l3.232-4.224c1.948,0.633,3.927,1.027,5.934,1.182
			c-2.997,9.108-2.558,14.704,1.316,16.791c2.434,1.311,5.503,1.123,9.203-0.546c-1.153,3.354-0.228,6.151,2.799,8.384
			c3.028,2.233,6.714,2.767,11.059,1.597c-2.219,2.738-2.281,4.879-0.188,6.423c1.287,0.95,2.958,1.463,5.016,1.539
			c2.057,0.075,4.193-0.312,6.411-1.161l-0.156-1.606C258.543,68.368,256.725,68.729,255.032,68.697z M63.49,26.514
			c-0.936-3.523-0.877-6.645,0.174-9.363c1.051-2.717,2.89-4.503,5.515-5.356c1.749-0.568,3.119-0.656,4.109-0.264
			c0.99,0.395,1.688,1.281,2.096,2.663c0.805,2.473,0.094,4.881-2.132,7.223C71.027,23.759,67.773,25.458,63.49,26.514z
			 M141.629,25.691c-1.884-0.139-3.932-0.793-6.142-1.964l3.798-16.05c4.551-3.292,8.327-4.828,11.33-4.606
			c1.962,0.146,3.317,0.867,4.067,2.166c0.749,1.299,0.939,3.358,0.571,6.179c-0.547,4.692-2.063,8.311-4.548,10.854
			C148.221,24.815,145.195,25.955,141.629,25.691z M170.119,29.345c-2.099-0.515-3.569-1.626-4.414-3.335
			c-0.845-1.707-0.943-3.903-0.296-6.587c1.003-4.079,2.845-7.24,5.525-9.485c2.681-2.244,5.655-2.977,8.924-2.198
			c4.469,1.092,6.071,4.345,4.808,9.759c-0.973,4.128-2.834,7.326-5.581,9.597C176.337,29.365,173.349,30.115,170.119,29.345z
			 M239.81,59.517c-3.275-2.416-3.271-5.816,0.016-10.203c2.738-3.646,5.813-5.9,9.224-6.766c3.41-0.863,6.651-0.163,9.725,2.104
			c1.683,1.241,3.229,2.563,4.644,3.965l-12.162,11.985C246.543,62.032,242.729,61.67,239.81,59.517z"/>
	</g>
</g>
</svg>
