<?xml version="1.0" encoding="utf-8"?>
<!-- Generator: Adobe Illustrator 16.0.0, SVG Export Plug-In . SVG Version: 6.00 Build 0)  -->
<!DOCTYPE svg PUBLIC "-//W3C//DTD SVG 1.1//EN" "http://www.w3.org/Graphics/SVG/1.1/DTD/svg11.dtd">
<svg version="1.1" id="Слой_1" xmlns="http://www.w3.org/2000/svg" xmlns:xlink="http://www.w3.org/1999/xlink" x="0px" y="0px"
	 width="99px" height="123px" viewBox="0 0 99 123" enable-background="new 0 0 99 123" xml:space="preserve">
<path fill="#37A2DC" d="M97.249,49.342c-1.29-1.264-3.252-1.844-4.89-1.42c-1.23,0.31-2.601,1.226-3.787,2.145
	c0.318-0.79,0.412-1.558-0.023-2.139c-0.406-0.533-1.019-0.795-1.69-0.777c-1.414,0.071-3.14,1.435-4.403,3.479
	c-1.028,1.67-1.44,2.901-1.662,3.561l-0.072,0.206c-0.071,0.203-0.466,0.365-0.939,0.383c-0.528,0.021-2.313,0.153-3.167,1.04
	c-1.084,1.125-0.174,2.501,0.554,3.596c0.188,0.292,0.492,0.798,0.831,1.379l-7.803,4.124c-1.222-1.353-2.548-2.604-3.949-3.747
	c0.925-0.477,1.483-1.001,1.708-1.637c0.356-1.01-0.159-2.015-0.76-3.178C66.871,55.719,66.5,55,66.212,54.178
	c-0.147-0.424-0.228-1.125-0.301-1.806c-0.183-1.623-0.383-3.449-1.851-3.331c-0.205,0.018-0.447,0.115-0.801,0.277
	c1.797-2.751,3.288-6.462,3.288-10.083c0-3.608-1.096-7.11-3.082-9.949c0.089-0.104,0.175-0.218,0.251-0.345
	c0.332-0.546,1.02-2.113,0.147-4.853c-1.04-3.272-3.11-4.468-4.251-4.282l-0.167,0.052c-0.009,0.003-0.092,0.041-0.239,0.106
	c-1.033-1.831-4.712-7.651-10.78-10.103c0.407-0.252,0.875-0.568,0.931-1.139c0.056-0.587-0.389-0.999-0.742-1.327
	c-0.106-0.096-0.268-0.25-0.333-0.337c0.033-0.104,0.138-0.305,0.203-0.427c0.23-0.426,0.519-0.958,0.271-1.495
	c-0.248-0.553-0.852-0.69-1.332-0.799c-0.153-0.034-0.4-0.093-0.418-0.068c-0.03-0.078-0.042-0.34-0.042-0.498
	c-0.018-0.488-0.035-1.097-0.524-1.447c-0.483-0.344-1.069-0.167-1.538-0.023c-0.147,0.047-0.397,0.124-0.397,0.15
	c-0.068-0.05-0.203-0.27-0.283-0.402c-0.259-0.42-0.582-0.944-1.187-1.001c-0.589-0.05-0.999,0.386-1.33,0.742
	c-0.109,0.118-0.292,0.315-0.296,0.34c-0.085-0.009-0.324-0.138-0.465-0.213c-0.424-0.229-0.956-0.52-1.496-0.271
	c-0.551,0.251-0.688,0.851-0.795,1.333c-0.036,0.152-0.091,0.403-0.066,0.414c-0.078,0.033-0.342,0.042-0.498,0.047
	c-0.492,0.013-1.1,0.032-1.448,0.521c-0.35,0.487-0.171,1.072-0.025,1.539c0.046,0.148,0.124,0.399,0.149,0.399
	c-0.05,0.066-0.27,0.2-0.402,0.283c-0.42,0.259-0.944,0.582-1.003,1.187c-0.056,0.589,0.386,0.999,0.743,1.329
	c0.118,0.109,0.314,0.293,0.339,0.298c-0.009,0.086-0.137,0.324-0.214,0.468c-0.228,0.424-0.514,0.956-0.27,1.493
	c0.25,0.554,0.852,0.691,1.333,0.799c0.151,0.033,0.397,0.087,0.415,0.068c0.005,0.009,0.006,0.04,0.009,0.055
	c-5.551,4.876-5.829,12.026-5.776,14.149c-1.364,0.243-1.956,2.582-1.436,5.699c0.415,2.49,1.302,4.225,2.321,4.758
	c-0.161,0.915-0.262,1.863-0.262,2.856c0,3.752,0.944,7.081,2.723,9.77c-0.274,0.003-1.474,0.056-2.161,0.851
	c-0.368,0.424-0.52,0.937-0.437,1.549c0.197,1.484-0.373,3.605-0.648,4.624l-0.044,0.171c-0.05,0.188-0.159,0.462-0.284,0.778
	c-0.491,1.251-1.102,2.81-0.526,3.84c0.165,0.294,0.5,0.671,1.168,0.792c0.026,0.006,0.075,0.015,0.111,0.021
	c-1.19,1.042-2.321,2.167-3.376,3.373l-8.148-4.309c0.354-0.607,0.677-1.149,0.89-1.47c0.666-1.004,1.576-2.382,0.493-3.508
	c-0.855-0.886-2.64-1.019-3.167-1.036c-0.473-0.018-0.871-0.18-0.941-0.38l-0.072-0.209c-0.221-0.66-0.631-1.891-1.661-3.564
	c-1.262-2.044-2.991-3.408-4.405-3.476c-0.679-0.021-1.284,0.245-1.688,0.778c-0.438,0.58-0.342,1.349-0.023,2.138
	c-1.188-0.919-2.559-1.838-3.788-2.147c-1.634-0.415-3.599,0.156-4.891,1.42c-1.421,1.393-1.907,3.455-1.363,5.799
	c1.286,5.573,11.132,7.947,11.55,8.043l0.077,0.016c0.464,0.053,1.033,0.262,1.111,0.405l0.089,0.26
	c0.249,0.736,0.713,2.109,2.636,2.783c0.242,0.086,0.467,0.124,0.678,0.124c1.329,0,2.059-1.512,2.396-2.212
	c0.22-0.459,0.806-1.532,1.417-2.613l7.945,4.203c-5.496,6.754-8.839,15.528-8.839,23.91c0,8.763,3.751,17.024,10.306,22.8
	c-0.935,0.898-1.608,2.142-1.972,3.753c-0.293,1.299-0.038,2.813,0.71,3.749c0.748,0.925,1.884,1.727,3.207,1.727h9.811
	c1.107,0,2.187-1.12,2.68-2.109c1.903,0.365,3.864,0.483,5.793,0.483c2.247,0,4.244-0.156,6.4-0.639
	c0.018,0.05,0.129,0.332,0.153,0.385c0.488,1.005,1.486,1.88,2.604,1.88h9.813c1.319,0,2.459-0.802,3.204-1.732
	c0.748-0.937,1.002-2.309,0.708-3.608c-0.448-1.988-1.361-3.496-2.669-4.391c6.35-5.573,9.987-13.784,9.987-22.567
	c0-8.436-3.401-17.153-9.027-23.83l7.563-4.009c0.609,1.072,1.196,2.147,1.42,2.61c0.336,0.7,1.066,2.209,2.395,2.209
	c0.209,0,0.436-0.041,0.678-0.124c1.923-0.677,2.388-2.05,2.636-2.786l0.089-0.26c0.07-0.132,0.598-0.347,1.112-0.405l0.077-0.016
	c0.418-0.097,10.262-2.471,11.548-8.043C99.155,52.793,98.669,50.732,97.249,49.342z M17.669,63.98
	c-0.664,1.375-1.034,1.558-1.438,1.413c-1.315-0.462-1.595-1.289-1.82-1.958c-0.038-0.115-0.075-0.221-0.112-0.313
	c-0.367-0.951-1.771-1.19-2.151-1.24c-0.619-0.153-9.458-2.41-10.528-7.045c-0.555-2.406,0.238-3.803,1.001-4.551
	c1.117-1.096,2.673-1.325,3.633-1.084c1.501,0.38,3.455,2.012,4.751,3.087c0.357,0.298,0.67,0.557,0.915,0.746
	c0.289,0.224,0.684,0.188,0.972-0.036c0.533-0.415,0.139-0.966,0.139-0.966c-0.087-0.141-0.194-0.306-0.313-0.489
	c-1.297-2.002-1.407-2.639-1.271-2.816c0.142-0.188,0.348-0.247,0.569-0.253c0.808,0.041,2.216,1.031,3.338,2.848
	c0.95,1.54,1.33,2.677,1.533,3.287l0.078,0.23c0.266,0.751,1.067,1.222,2.143,1.264c0.825,0.029,1.884,0.241,2.261,0.636
	c0.296,0.307,0.04,0.819-0.708,1.947C19.995,59.704,18.126,63.025,17.669,63.98z M37.589,10.458
	c-0.094-0.022-0.229-0.053-0.334-0.084c0.046-0.094,0.104-0.208,0.147-0.287c0.205-0.38,0.436-0.808,0.358-1.277
	c-0.08-0.468-0.435-0.798-0.751-1.089c-0.066-0.062-0.16-0.149-0.232-0.226c0.088-0.063,0.206-0.136,0.289-0.186
	c0.359-0.221,0.763-0.469,0.926-0.904c0.165-0.436,0.023-0.896-0.103-1.3c-0.028-0.089-0.068-0.218-0.093-0.326
	c0.109-0.009,0.243-0.013,0.339-0.016c0.423-0.013,0.904-0.028,1.265-0.325c0.354-0.294,0.459-0.757,0.551-1.167
	c0.023-0.095,0.051-0.229,0.083-0.335c0.096,0.044,0.209,0.105,0.289,0.147c0.377,0.204,0.807,0.436,1.275,0.356
	c0.468-0.08,0.798-0.435,1.088-0.748c0.063-0.068,0.149-0.162,0.226-0.234c0.065,0.088,0.136,0.205,0.187,0.289
	C43.319,3.103,43.569,3.508,44,3.67c0.442,0.166,0.898,0.022,1.302-0.102c0.091-0.028,0.221-0.069,0.325-0.093
	c0.012,0.108,0.015,0.242,0.018,0.336c0.015,0.424,0.026,0.906,0.327,1.265c0.292,0.358,0.754,0.462,1.166,0.554
	c0.095,0.022,0.23,0.051,0.336,0.084c-0.047,0.094-0.106,0.208-0.147,0.287c-0.204,0.377-0.436,0.806-0.359,1.275
	c0.079,0.468,0.436,0.8,0.751,1.091c0.068,0.062,0.162,0.147,0.232,0.223c-0.088,0.064-0.206,0.135-0.289,0.187
	c-0.359,0.221-0.763,0.471-0.925,0.904c-0.165,0.438-0.023,0.897,0.103,1.302c0.027,0.09,0.068,0.218,0.092,0.322
	c-0.106,0.01-0.242,0.015-0.336,0.018c-0.424,0.014-0.907,0.028-1.267,0.326c-0.356,0.294-0.459,0.758-0.554,1.17
	c-0.023,0.094-0.05,0.227-0.083,0.333c-0.094-0.044-0.206-0.106-0.289-0.146c-0.377-0.204-0.804-0.434-1.275-0.358
	c-0.468,0.08-0.798,0.436-1.088,0.75c-0.062,0.067-0.149,0.16-0.226,0.234c-0.063-0.088-0.135-0.206-0.185-0.289
	c-0.221-0.359-0.471-0.765-0.904-0.926c-0.14-0.053-0.285-0.074-0.427-0.074c-0.3,0-0.599,0.091-0.875,0.177
	c-0.09,0.028-0.218,0.069-0.322,0.092c-0.012-0.107-0.015-0.241-0.018-0.335c-0.014-0.424-0.028-0.906-0.326-1.267
	C38.465,10.654,38,10.549,37.589,10.458z M37.985,13.437c0.071,0.122,0.164,0.234,0.293,0.327c0.484,0.346,1.068,0.169,1.536,0.023
	c0.15-0.046,0.402-0.124,0.402-0.149c0.066,0.05,0.202,0.268,0.283,0.4c0.26,0.42,0.582,0.944,1.188,1.003
	c0.034,0.003,0.069,0.004,0.101,0.004c0.535,0,0.916-0.412,1.227-0.746c0.109-0.12,0.293-0.316,0.297-0.341
	c0.085,0.009,0.324,0.137,0.465,0.214c0.427,0.229,0.958,0.517,1.5,0.269c0.55-0.251,0.686-0.851,0.795-1.333
	c0.036-0.15,0.089-0.403,0.068-0.416c0.079-0.032,0.342-0.04,0.498-0.045c0.489-0.016,1.099-0.033,1.449-0.522
	c0.2-0.285,0.218-0.598,0.171-0.904c5.283,2.294,8.665,7.455,9.713,9.254c-2.096,0.836-6.291,2.353-11.645,3.511
	c-5.823,1.259-10.784,1.758-13.049,1.939C33.246,24.024,33.536,17.849,37.985,13.437z M31.816,31.504
	c-0.471-2.825,0.156-4.078,0.28-4.169c0.065-0.003,6.496-0.316,14.509-2.051c6.103-1.321,10.729-3.102,12.547-3.857
	c0.021-0.007,0.044-0.004,0.068-0.016c0.012-0.006,0.018-0.016,0.029-0.023c0.301-0.125,0.526-0.223,0.645-0.276
	c0.434,0.019,1.882,0.779,2.707,3.376c0.694,2.182,0.2,3.366,0.032,3.678c-0.153,0.286-0.301,0.383-0.342,0.396l-0.188,0.063
	c-0.057,0.028-5.636,2.836-14.188,4.567c-5.605,1.135-14.285,2.132-14.397,2.146C33.243,35.325,32.293,34.36,31.816,31.504z
	 M34.152,36.601c1.866-0.223,9.105-1.11,14.028-2.106c7.599-1.539,12.789-3.857,14.161-4.509c1.853,2.628,2.881,5.886,2.881,9.25
	c0,4.262-2.235,8.687-4.468,11.221c-4.12,1.717-12.238,4.017-23.245-0.519l0.041-0.036c-2.395-2.671-3.658-6.324-3.658-10.564
	C33.892,38.381,33.991,37.471,34.152,36.601z M32.348,60.275c-0.27-0.486,0.319-1.988,0.602-2.71
	c0.147-0.377,0.273-0.698,0.332-0.924l0.044-0.165c0.319-1.187,0.915-3.399,0.683-5.143c-0.042-0.313,0.048-0.459,0.122-0.542
	c0.248-0.289,0.792-0.395,1.093-0.424c14.576,6.792,24.685,1.991,28.01,0.412c0.393-0.189,0.839-0.4,0.887-0.442
	c0.253,0.203,0.395,1.487,0.472,2.18c0.088,0.786,0.171,1.531,0.37,2.1c0.315,0.907,0.708,1.67,1.055,2.345
	c0.478,0.928,0.854,1.664,0.689,2.132c-0.123,0.351-0.598,0.716-1.407,1.078c-3.025,1.354-10.97,2.521-16.371,2.412
	c-6.31-0.139-13.333-1.57-15.641-2.038c-0.327-0.068-0.564-0.115-0.695-0.139C32.402,60.369,32.365,60.304,32.348,60.275z
	 M40.298,79.764c-1.237-0.444-3.225-0.665-5.326-0.901c-1.885-0.212-3.997-0.449-5.018-0.839c1.1-6.079,4.598-12.161,6.752-15.475
	c2.14,0.38,4.842,0.802,7.663,1.071c-1.785,3.094-2.459,7.564-2.999,11.24C41.076,76.833,40.717,79.275,40.298,79.764z
	 M42.859,119.594c-0.269,0.554-0.798,1.17-1.412,1.17h-9.811c-0.91,0-1.682-0.622-2.171-1.234c-0.491-0.615-0.652-1.591-0.452-2.486
	c0.653-2.884,2.368-4.415,5.102-4.415c3.791,0,6.758,2.892,8.58,5.231C43.064,118.333,43.126,119.049,42.859,119.594z
	 M71.51,116.901c0.204,0.896,0.042,2.016-0.45,2.628c-0.489,0.612-1.261,1.234-2.168,1.234h-9.813c-0.612,0-1.144-0.616-1.414-1.17
	c-0.265-0.545-0.203-1.296,0.168-1.771c1.819-2.339,4.786-5.195,8.58-5.195C69.146,112.625,70.859,114.015,71.51,116.901z
	 M69.063,111.477l-0.206,0.153c-0.73-0.26-1.543-0.401-2.444-0.401c-4.33,0-7.623,3.063-9.625,5.635
	c-0.36,0.462-0.555,1.005-0.59,1.561c-3.834,0.869-7.929,0.943-11.875,0.192c0-0.624-0.18-1.237-0.58-1.753
	c-2.004-2.571-5.3-5.635-9.627-5.635c-1.294,0-2.412,0.274-3.349,0.807c-6.391-5.53-10.054-13.509-10.054-21.978
	c0-10.326,5.256-21.286,13.401-27.995c0.349,0.068,0.748,0.145,1.175,0.227c-2.271,3.564-5.692,9.732-6.702,15.855l-0.932,3.896
	c-0.085,0.36,0.134,0.714,0.49,0.803c0.051,0.012,0.103,0.018,0.153,0.018c0.302,0,0.574-0.204,0.645-0.508l0.726-3.03
	c0.313,0.105,0.664,0.203,1.058,0.285l-0.569,3.008c-0.069,0.358,0.167,0.704,0.529,0.774c0.04,0.009,0.082,0.012,0.124,0.012
	c0.313,0,0.591-0.221,0.651-0.538l0.572-3.025c0.321,0.047,0.65,0.095,0.994,0.139l-0.368,3.23c-0.041,0.362,0.22,0.689,0.583,0.733
	c0.026,0.003,0.05,0.003,0.077,0.003c0.333,0,0.62-0.247,0.658-0.586l0.368-3.225c0.158,0.018,0.315,0.035,0.476,0.053
	c0.179,0.021,0.356,0.041,0.537,0.059l-0.192,3.77c-0.016,0.366,0.266,0.919,0.63,0.919c0.012,0,0.024,0,0.034,0
	c0.352,0,0.643-0.485,0.662-0.839l0.183-3.693c0.333,0.044,0.657,0.085,0.968,0.132l0.034,3.788
	c0.003,0.365,0.299,0.612,0.663,0.612c0,0,0.004,0,0.007,0c0.365,0,0.66-0.276,0.657-0.642l-0.031-3.517
	c0.359,0.077,0.68,0.165,0.941,0.266c0.006,0,0.011,0,0.017,0l0.257,3.593c0.025,0.348,0.316,0.3,0.662,0.3c0.016,0,0.03,0,0.046,0
	c0.366,0,0.641-0.047,0.617-0.411l-0.276-3.709c-0.001-0.032-0.018-0.059-0.025-0.091c0.71-0.73,1-2.469,1.473-5.668
	c0.56-3.795,1.262-8.47,3.17-11.304c1.02,0.077,2.042,0.136,3.049,0.159c0.262,0.003,0.533,0.006,0.804,0.006
	c5.06,0,11.669-0.954,15.152-2.156c8.481,6.603,13.937,17.516,13.937,27.999C78.794,98.246,75.251,106.146,69.063,111.477z
	 M97.32,54.841c-1.069,4.627-9.908,6.889-10.529,7.042c-0.381,0.049-1.782,0.292-2.153,1.24c-0.036,0.092-0.071,0.197-0.109,0.315
	c-0.228,0.666-0.506,1.493-1.82,1.955c-0.403,0.147-0.774-0.035-1.438-1.41c-0.457-0.955-2.323-4.28-3.061-5.39
	c-0.683-1.034-0.937-1.546-0.642-1.853c0.378-0.392,1.438-0.604,2.263-0.636c1.077-0.039,1.875-0.513,2.144-1.264l0.077-0.23
	c0.203-0.61,0.582-1.435,1.531-2.972c1.125-1.82,2.532-2.536,3.341-2.536c0.017,0,0.031,0,0.049,0c0.227,0,0.386-0.236,0.519-0.062
	c0.139,0.182,0.026,0.657-1.27,2.663c-0.121,0.182-0.227,0.268-0.312,0.406c-0.194,0.313-0.139,0.677,0.136,0.925l0.532,0.359
	l0.438-0.347c0.248-0.189,0.561-0.454,0.919-0.749c1.294-1.081,3.25-2.709,4.748-3.093c0.967-0.241,2.519-0.012,3.635,1.084
	C97.084,51.038,97.874,52.435,97.32,54.841z"/>
<path fill="#37A2DC" d="M49.669,85.435c1.565,0,2.843-1.273,2.843-2.843c0-1.565-1.277-2.839-2.843-2.839
	c-1.568,0-2.842,1.273-2.842,2.839C46.827,84.161,48.101,85.435,49.669,85.435z M49.669,81.082c0.832,0,1.513,0.679,1.513,1.513
	c0,0.835-0.681,1.513-1.513,1.513c-0.834,0-1.513-0.678-1.513-1.513C48.156,81.761,48.834,81.082,49.669,81.082z"/>
<path fill="#37A2DC" d="M49.669,75.516c1.227,0,2.224-0.997,2.224-2.224c0-1.221-0.997-2.217-2.224-2.217s-2.223,0.996-2.223,2.217
	C47.446,74.519,48.442,75.516,49.669,75.516z M49.669,72.401c0.489,0,0.894,0.401,0.894,0.894s-0.404,0.894-0.894,0.894
	c-0.492,0-0.893-0.401-0.893-0.894S49.177,72.401,49.669,72.401z"/>
<path fill="#37A2DC" d="M49.669,90.09c-2.07,0-3.75,1.685-3.75,3.751c0,2.067,1.684,3.751,3.75,3.751
	c2.067,0,3.751-1.684,3.751-3.751C53.42,91.774,51.739,90.09,49.669,90.09z M49.669,96.265c-1.335,0-2.423-1.088-2.423-2.421
	c0-1.339,1.088-2.424,2.423-2.424c1.336,0,2.424,1.085,2.424,2.424C52.093,95.177,51.005,96.265,49.669,96.265z"/>
<circle fill="#37A2DC" cx="44.084" cy="37.583" r="1.406"/>
<circle fill="#37A2DC" cx="55.333" cy="37.583" r="1.406"/>
<path fill="#37A2DC" d="M49.61,45.005c2.554,0.501,5.054,0.918,5.054,0.918c0.047,0.009,0.095,0.012,0.142,0.012
	c0.289,0,0.561-0.159,0.695-0.427c0.159-0.31,0.098-0.68-0.159-0.929c-0.035-0.033-3.481-3.26-5.136-4.913
	c-0.328-0.329-0.85-0.382-1.427-0.14c-0.873,0.36-1.816,1.364-1.816,2.717C46.962,43.604,48.003,44.689,49.61,45.005z
	 M48.791,41.092c0.236-0.233,0.466-0.341,0.59-0.375c1.02,1.016,2.612,2.528,3.733,3.587c-0.911-0.161-2.073-0.373-3.244-0.603
	h-0.003c-0.369-0.074-1.575-0.392-1.575-1.461C48.292,41.7,48.563,41.318,48.791,41.092z"/>
<path fill="#37A2DC" d="M51.683,47.681c-4.03,1.356-7.014-1.403-7.138-1.521c-0.265-0.248-0.687-0.242-0.94,0.027
	c-0.251,0.265-0.242,0.687,0.026,0.938c0.118,0.115,2.418,2.262,5.809,2.262c0.832,0,1.728-0.13,2.671-0.448
	c0.348-0.118,0.534-0.496,0.413-0.843C52.408,47.751,52.037,47.563,51.683,47.681z"/>
</svg>
